<svg xmlns="http://www.w3.org/2000/svg" version="1.1" xmlns:xlink="http://www.w3.org/1999/xlink" xmlns:svgjs="http://svgjs.dev/svgjs" width="1500" height="1500" viewBox="0 0 1500 1500"><rect width="1500" height="1500" fill="#0c1d36"></rect><g transform="matrix(0.6666666666666666,0,0,0.6666666666666666,249.39393939393938,438.5856950067477)"><svg viewBox="0 0 396 247" data-background-color="#0c1d36" preserveAspectRatio="xMidYMid meet" height="935" width="1500" xmlns="http://www.w3.org/2000/svg" xmlns:xlink="http://www.w3.org/1999/xlink"><g id="tight-bounds" transform="matrix(1,0,0,1,0.2400000000000091,-0.09999999999999432)"><svg viewBox="0 0 395.52 247.2" height="247.2" width="395.52"><g><svg></svg></g><g><svg viewBox="0 0 395.52 247.2" height="247.2" width="395.52"><mask id="c46e9756-257c-4c33-87ac-88f57ba30640"><rect width="395.52" height="247.2" fill="white"></rect><g transform="matrix(1,0,0,1,0,80.16132617519267)" id="clone"><svg viewBox="0 0 395.52 86.87734764961465" height="86.87734764961465" width="395.52"><g><svg viewBox="0 0 395.52 86.87734764961465" height="86.87734764961465" width="395.52"><g><svg viewBox="0 0 395.52 86.87734764961465" height="86.87734764961465" width="395.52"><g><svg viewBox="0 0 395.52 86.87734764961465" height="86.87734764961465" width="395.52"><g id="SvgjsG1653"><svg viewBox="0 0 395.52 86.87734764961465" height="86.87734764961465" width="395.52" id="SvgjsSvg1652"><g><svg viewBox="0 0 395.52 51.97221975840841" height="51.97221975840841" width="395.52"><g transform="matrix(1,0,0,1,0,0)"><svg width="395.52" viewBox="-1.88 -38.79 315.86 42.38" height="51.97221975840841" data-palette-color="#f9cc0b"><path d="M22.71-13.92L22.71-13.92 21.68-3.08 1.12-1.46Q1.27-9.99 1.45-18.41 1.64-26.83 1.9-35.35L1.9-35.35 14.6-35.35Q14.04-30 13.53-24.67 13.01-19.34 12.79-13.92L12.79-13.92Q13.94-13.87 15.06-13.87 16.19-13.87 17.33-13.87L17.33-13.87Q18.7-13.87 20.02-13.89 21.34-13.92 22.71-13.92ZM51.1-19.73L51.1-19.73Q51.1-17.6 50.8-15.48L50.8-15.48Q46.63-15.21 42.5-14.61 38.38-14.01 34.25-13.43L34.25-13.43Q34.89-11.67 36.24-10.62 37.6-9.57 39.48-9.57L39.48-9.57Q40.45-9.57 41.61-9.94 42.77-10.3 43.92-10.85 45.07-11.4 46.12-12.04 47.17-12.67 47.92-13.18L47.92-13.18 46.75-2.1Q45.8-1.37 44.69-0.85 43.58-0.34 42.38-0.02 41.18 0.29 39.96 0.44 38.74 0.59 37.57 0.59L37.57 0.59Q35.15 0.59 33.15-0.07 31.15-0.73 29.53-1.92 27.9-3.1 26.68-4.71 25.46-6.32 24.66-8.23 23.85-10.13 23.43-12.26 23.02-14.38 23.02-16.55L23.02-16.55Q23.02-18.82 23.43-21.09 23.85-23.36 24.69-25.46 25.53-27.56 26.82-29.36 28.1-31.15 29.81-32.5 31.52-33.84 33.68-34.59 35.84-35.35 38.45-35.35L38.45-35.35Q40.62-35.35 42.42-34.75 44.21-34.16 45.62-33.09 47.02-32.03 48.06-30.57 49.09-29.1 49.77-27.36 50.44-25.61 50.77-23.67 51.1-21.73 51.1-19.73ZM41.33-20.46L41.33-21Q41.33-21.68 41.18-22.4 41.04-23.12 40.71-23.71 40.38-24.29 39.84-24.67 39.3-25.05 38.5-25.05L38.5-25.05Q37.52-25.05 36.78-24.52 36.03-24 35.5-23.21 34.96-22.41 34.62-21.48 34.27-20.56 34.1-19.78L34.1-19.78 41.33-20.46ZM72.6-34.96L82.12-2.1 70.01-0.54 68.55-6.05 62.98-6.05 61.76-0.54 49.31-1.76 59.03-34.28 72.6-34.96ZM64.01-13.53L67.67-13.53 65.82-22.02 64.01-13.53ZM111.25-23.54L111.25-23.54Q111.25-21.63 110.92-20.08 110.59-18.53 109.88-17.24 109.17-15.94 108.05-14.84 106.93-13.75 105.34-12.74L105.34-12.74 111.15-2.39 100.16-0.24 96.4-10.64 93.38-10.55 92.94-0.39 82.44-0.39Q82.56-5.96 82.67-11.47 82.78-16.99 82.93-22.56L82.93-22.56Q82.98-25.37 83.02-28.13 83.07-30.88 83.22-33.69L83.22-33.69Q84.93-34.33 86.59-34.74 88.25-35.16 89.92-35.39 91.59-35.62 93.32-35.71 95.04-35.79 96.84-35.79L96.84-35.79Q99.63-35.79 102.23-35.02 104.83-34.25 106.83-32.71 108.83-31.18 110.04-28.88 111.25-26.59 111.25-23.54ZM100.31-22.75L100.31-22.75Q100.31-23.78 100.03-24.63 99.75-25.49 99.2-26.11 98.65-26.73 97.83-27.09 97.01-27.44 95.92-27.44L95.92-27.44Q95.43-27.44 94.96-27.38 94.5-27.32 94.06-27.2L94.06-27.2 93.67-18.12 94.26-18.12Q95.31-18.12 96.39-18.38 97.48-18.65 98.34-19.21 99.21-19.78 99.76-20.65 100.31-21.53 100.31-22.75ZM143.23-12.35L143.23-12.35Q143.23-9.59 143.17-6.9 143.11-4.2 142.98-1.46L142.98-1.46 128.92-1.71Q129.65-6.03 130.19-10.34 130.73-14.65 130.73-19.04L130.73-19.04Q130.73-19.36 130.7-20.07 130.68-20.78 130.61-21.67 130.53-22.56 130.4-23.5 130.26-24.44 130.03-25.22 129.8-26 129.47-26.5 129.14-27 128.68-27L128.68-27Q127.85-27 127.27-26.51 126.7-26.03 126.32-25.26 125.94-24.49 125.72-23.54 125.5-22.58 125.39-21.63 125.28-20.68 125.25-19.84 125.21-18.99 125.21-18.46L125.21-18.46Q125.09-14.14 125.01-9.88 124.94-5.62 124.82-1.27L124.82-1.27 112.37-0.73Q112.86-9.35 113.31-17.87 113.76-26.39 114.03-35.01L114.03-35.01 125.55-35.6 125.45-31.69Q126.14-32.52 126.93-33.25 127.72-33.98 128.63-34.51 129.53-35.03 130.54-35.34 131.56-35.64 132.68-35.64L132.68-35.64Q134.76-35.64 136.32-34.96 137.88-34.28 139-33.11 140.13-31.93 140.88-30.33 141.64-28.74 142.1-26.93 142.57-25.12 142.81-23.16 143.06-21.19 143.14-19.29 143.23-17.38 143.23-15.6 143.23-13.82 143.23-12.35ZM176.96-34.62L188.49-35.01 186.73-1.9 173.94-0.73 167.1-18.46 166.03-0.39 155.04-0.39 155.92-35.01 168.12-35.6 176.57-18.02 176.96-34.62ZM228.67-23.49L228.67-23.49Q228.67-21.12 227.96-19.29 227.25-17.46 226.02-16.09 224.78-14.72 223.12-13.77 221.46-12.82 219.57-12.22 217.68-11.62 215.65-11.34 213.63-11.06 211.67-11.04L211.67-11.04 211.67 0.34 200.3 0.34Q200.3-5.25 200.32-10.79 200.35-16.33 200.4-21.97L200.4-21.97Q200.44-24.95 200.42-27.93 200.4-30.91 200.54-33.94L200.54-33.94Q203.67-34.86 206.79-35.33 209.92-35.79 213.24-35.79L213.24-35.79Q215.12-35.79 217-35.49 218.88-35.18 220.6-34.52 222.32-33.86 223.8-32.87 225.27-31.88 226.35-30.52 227.42-29.15 228.04-27.4 228.67-25.66 228.67-23.49ZM217.83-22.66L217.83-22.66Q217.83-24.24 216.86-25.13 215.9-26.03 214.36-26.03L214.36-26.03Q213.85-26.03 213.3-25.94 212.75-25.85 212.26-25.73L212.26-25.73 211.97-18.6Q212.31-18.55 212.63-18.55 212.94-18.55 213.29-18.55L213.29-18.55Q214.16-18.55 214.98-18.85 215.8-19.14 216.44-19.69 217.07-20.24 217.45-20.98 217.83-21.73 217.83-22.66ZM241.51-12.94L251.42-12.94 250.39-2.1 229.84-0.49 230.62-35.35 243.31-35.35 241.51-12.94ZM273.83-34.96L283.35-2.1 271.24-0.54 269.77-6.05 264.21-6.05 262.99-0.54 250.54-1.76 260.25-34.28 273.83-34.96ZM265.23-13.53L268.9-13.53 267.04-22.02 265.23-13.53ZM299.26-33.89L310.98-33.06 299.51-14.31 299.85-0.49 287.3-0.49 287.59-14.21 278.66-32.32 291.11-33.89 295.02-23.34 299.26-33.89Z" opacity="1" transform="matrix(1,0,0,1,0,0)" fill="black" class="wordmark-text-0" id="SvgjsPath1651" stroke-width="5" stroke="black" stroke-linejoin="round"></path></svg></g></svg></g><g transform="matrix(1,0,0,1,2.5,58.63976244903782)"><svg viewBox="0 0 390.52 28.237585200576838" height="28.237585200576838" width="390.52"><g transform="matrix(1,0,0,1,0,0)"><svg width="390.52" viewBox="-1.17 -44.33 825.821428571353 60.51" height="28.237585200576838" data-palette-color="#f9cc0b"><path d="M10.99 0.49L10.99 0.49Q9.38 0.49 8.13-0.29L8.13-0.29Q6.88 0.49 5.82 0.49 4.76 0.49 4.08 0.31 3.39 0.12 2.88-0.2L2.88-0.2Q1.83-0.83 1.83-1.78L1.83-1.78Q1.83-2.27 2.1-2.64L2.1-2.64Q2.64-2.22 3.47-2.22L3.47-2.22Q5.64-2.22 6.47-4.08L6.47-4.08 6.47-16.02Q6.47-17.14 6.01-17.68L6.01-17.68Q5.27-18.58 3.49-19.46L3.49-19.46Q5.15-20.21 5.64-20.8L5.64-20.8Q6.47-21.75 6.47-22.95L6.47-22.95 6.47-33.25Q5.64-35.13 3.47-35.13L3.47-35.13Q2.64-35.13 2.1-34.72L2.1-34.72Q1.83-35.08 1.83-35.56 1.83-36.04 2.11-36.45 2.39-36.87 2.88-37.16L2.88-37.16Q4-37.84 5.46-37.84 6.91-37.84 8.13-37.04L8.13-37.04Q9.4-37.84 10.96-37.84 12.52-37.84 13.79-37.04L13.79-37.04Q15.16-37.84 16.28-37.84 17.41-37.84 18.09-37.66 18.77-37.48 19.29-37.16L19.29-37.16Q20.34-36.52 20.34-35.57L20.34-35.57Q20.34-35.08 20.07-34.72L20.07-34.72Q19.53-35.13 18.63-35.13 17.72-35.13 16.81-34.66 15.89-34.18 15.45-33.23L15.45-33.23 15.45-22.95Q15.45-21.75 15.97-21.17L15.97-21.17Q16.77-20.21 18.43-19.46L18.43-19.46Q16.65-18.58 16.16-18.02L16.16-18.02Q15.45-17.14 15.45-16.02L15.45-16.02 15.45-5.35Q17.07-2.78 19.48-2.78L19.48-2.78Q25.46-2.78 27.17-7.86L27.17-7.86Q27.93-10.11 27.93-11.98 27.93-13.84 27.42-14.48L27.42-14.48Q27.98-14.94 28.58-14.94 29.17-14.94 29.69-14.7 30.2-14.45 30.62-13.96L30.62-13.96Q31.47-12.96 31.47-11.6 31.47-10.23 31.25-9.5L31.25-9.5Q32.37-8.57 32.37-6.88 32.37-5.2 31.42-4.15L31.42-4.15Q32.23-3.13 32.23-2.29 32.23-1.46 31.99-0.87 31.76-0.27 31.35 0.2L31.35 0.2Q30.42 1.15 29.13 1.15L29.13 1.15Q28.49 1.15 27.95 0.88L27.95 0.88Q28.05 0.34 28.05-0.2L28.05-0.2Q28.05-1.32 27.03-1.32L27.03-1.32Q26.27-1.32 24.93-0.71L24.93-0.71Q22.34 0.49 19.03 0.49 15.72 0.49 13.87-0.37L13.87-0.37Q12.6 0.49 10.99 0.49ZM8.81-9.64L8.81-6.47Q10.03-6.93 10.16-9.67L10.16-9.67Q10.3-12.4 10.3-17.24 10.3-22.07 10.29-23.67 10.28-25.27 10.25-26.25L10.25-26.25Q10.18-29.13 9.7-29.72 9.23-30.32 8.81-30.52L8.81-30.52Q8.81-22.02 8.52-20.85L8.52-20.85Q8.18-19.87 6.86-19.46L6.86-19.46Q8.33-18.95 8.52-18.21L8.52-18.21Q8.81-17.04 8.81-9.64L8.81-9.64ZM73.74-7.37L73.74-7.37Q74.27-8.4 75.71-8.4L75.71-8.4Q76.69-8.4 77.23-7.59L77.23-7.59Q77.67-6.96 77.67-6.04 77.67-5.13 77.2-4.2 76.74-3.27 75.93-2.51 75.13-1.76 74.09-1.17 73.05-0.59 71.88-0.2L71.88-0.2Q69.46 0.61 66.85 0.61 64.24 0.61 61.96-0.26 59.67-1.12 58.04-2.69L58.04-2.69Q54.84-5.76 54.13-11.13L54.13-11.13Q53.96-12.33 53.57-12.84L53.57-12.84Q52.84-13.75 51.15-14.58L51.15-14.58Q53.28-15.53 53.86-17.63L53.86-17.63Q54.03-18.21 54.13-18.8L54.13-18.8Q54.74-23.1 58.48-26.12L58.48-26.12Q62.09-29.05 66.56-29.05L66.56-29.05Q71.2-29.05 74.59-25.78L74.59-25.78Q78.11-22.41 78.11-17.5L78.11-17.5Q78.11-17.33 78.09-17.16 78.08-16.99 78.11-16.85L78.11-16.85Q78.15-16.53 78.5-16.48L78.5-16.48Q78.94-15.92 78.94-15.28L78.94-15.28Q78.94-13.82 77.37-13.55L77.37-13.55Q76.98-13.48 76.15-13.35L76.15-13.35 62.38-11.16 62.38-8.81Q62.38-5.98 64.09-4.32L64.09-4.32Q65.7-2.73 68.17-2.73L68.17-2.73Q70.78-2.73 72.37-3.81L72.37-3.81Q73.86-4.83 73.86-6.49L73.86-6.49Q73.86-6.88 73.74-7.37ZM62.38-14.11L69.46-15.26 69.46-22.09Q69.46-23.71 68.83-24.46L68.83-24.46Q67.71-25.76 66.61-25.76 65.51-25.76 64.78-25.43 64.04-25.1 63.51-24.39L63.51-24.39Q62.38-22.9 62.38-19.75L62.38-19.75 62.38-14.11ZM71.56-15.63L73.08-15.87 73.08-16.63Q73.08-21.17 72.32-22.12L72.32-22.12Q71.98-22.53 71.56-22.73L71.56-22.73 71.56-15.63ZM58.4-6.47L58.4-6.47Q58.75-6.74 58.75-7.08L58.75-7.08Q58.75-7.62 58.53-8.45L58.53-8.45Q57.53-12.28 57.53-13.78 57.53-15.28 57.62-16.13 57.72-16.97 57.89-17.82L57.89-17.82Q58.18-19.48 58.53-20.75L58.53-20.75Q58.75-21.58 58.75-21.88L58.75-21.88Q58.75-22.46 58.4-22.73L58.4-22.73Q57.38-21.51 56.84-19.46 56.3-17.41 55.96-15.84L55.96-15.84Q55.84-15.19 54.52-14.58L54.52-14.58Q55.84-13.96 55.96-13.35L55.96-13.35Q56.87-9.23 57.45-8.11 58.04-6.98 58.4-6.47ZM116.39-2.32L116.39-2.32Q114.17 0.61 109.73 0.61L109.73 0.61Q104.31 0.61 101.6-2.64L101.6-2.64Q100.43-4.03 99.99-5.74L99.99-5.74Q99.74-6.76 99.13-7.31 98.52-7.86 97.62-8.3L97.62-8.3Q99.38-9.11 100.13-11.33L100.13-11.33Q100.94-13.67 102.82-14.72L102.82-14.72Q104.85-15.82 107.29-15.88 109.73-15.94 110.9-16.04 112.07-16.14 112.97-16.36L112.97-16.36Q114.66-16.75 115.61-17.8L115.61-17.8 115.61-21.46Q115.61-23.88 114.62-25 113.63-26.12 111.62-26.12 109.61-26.12 108.64-25.38 107.68-24.63 107.68-23.39L107.68-23.39Q107.68-21.48 109.63-21.53L109.63-21.53Q109.24-19.63 107.58-19.63L107.58-19.63Q107.09-19.63 106.63-19.8L106.63-19.8 106.63-19.73Q106.63-19.09 107.21-18.92L107.21-18.92Q106.6-17.99 105.16-18.02 103.72-18.04 102.92-19.56L102.92-19.56Q102.55-19.46 102.07-19.46 101.6-19.46 101.02-19.78 100.45-20.09 100.11-20.65L100.11-20.65Q101.33-21.39 101.6-22.92L101.6-22.92Q101.89-24.8 104.6-26.73L104.6-26.73Q107.87-29.05 112.95-29.05L112.95-29.05Q121.37-29.05 123.23-23.88L123.23-23.88Q123.84-22.14 123.84-19.78L123.84-19.78 123.84-17.8Q123.84-16.6 124.44-15.84 125.04-15.09 126.48-14.6L126.48-14.6Q124.94-13.89 124.5-13.33L124.5-13.33Q123.84-12.48 123.84-11.38L123.84-11.38 123.84-4.05Q124.55-2.22 125.87-2.22L125.87-2.22Q126.7-2.22 127.23-2.64L127.23-2.64Q127.57-2.17 127.57-1.48 127.57-0.78 126.88-0.15 126.18 0.49 124.79 0.49 123.4 0.49 122.2-0.29L122.2-0.29Q121.15 0.49 120.34 0.49 119.52 0.49 118.92 0.33 118.32 0.17 117.81-0.17L117.81-0.17Q116.66-0.93 116.39-2.32ZM117.93-22.73L117.93-6.47Q119.35-7.03 119.42-11.87L119.42-11.87Q119.42-12.89 119.42-14.21 119.42-15.53 119.41-16.47 119.4-17.41 119.37-18.26L119.37-18.26Q119.27-21.34 118.81-21.94 118.35-22.53 117.93-22.73L117.93-22.73ZM108.92-8.2L108.92-8.2Q108.92-7.18 109.14-6.2 109.36-5.22 109.8-4.49L109.8-4.49Q110.78-2.95 112.56-2.95L112.56-2.95Q113.9-2.95 114.78-4.05L114.78-4.05Q115.61-5.13 115.61-6.81L115.61-6.81 115.61-14.77Q114.05-13.87 111.61-13.53L111.61-13.53Q108.92-13.11 108.92-8.2ZM105.26-2.71L105.26-2.71Q105.5-2.88 105.5-3.15L105.5-3.15Q105.5-3.52 105.16-4.17L105.16-4.17Q103.94-6.42 103.94-7.86 103.94-9.3 104.05-9.94 104.16-10.57 104.34-11.02 104.53-11.47 104.76-11.82 104.99-12.16 105.16-12.43L105.16-12.43Q105.48-12.99 105.48-13.2 105.48-13.4 105.26-13.55L105.26-13.55Q104.26-13.09 103.8-12.45L103.8-12.45Q102.97-11.33 102.57-9.55L102.57-9.55Q102.48-9.03 100.87-8.3L100.87-8.3Q102.43-7.59 102.57-7.06L102.57-7.06Q103.4-4.15 105.26-2.71ZM152.34-0.29L152.34-0.29Q151.21 0.49 149.77 0.49 148.33 0.49 147.69-0.18 147.04-0.85 147.04-1.46L147.04-1.46Q147.04-2.27 147.31-2.64L147.31-2.64Q147.84-2.22 148.67-2.22L148.67-2.22Q150.24-2.22 150.7-3.74L150.7-3.74 150.7-11.13Q150.7-12.26 150.26-12.79L150.26-12.79Q149.48-13.75 147.72-14.6L147.72-14.6Q150.7-15.97 150.7-18.8L150.7-18.8 150.7-21.36Q150.7-23.44 149.28-23.61L149.28-23.61Q148.87-23.66 148.23-23.66 147.6-23.66 147.06-23.24L147.06-23.24Q146.72-23.71 146.72-24.21 146.72-24.71 146.98-25.33 147.23-25.95 147.77-26.51L147.77-26.51Q149.04-27.83 150.74-27.83 152.43-27.83 153.56-27.29L153.56-27.29Q154.9-28.81 156.44-28.81L156.44-28.81Q158.83-28.81 158.83-26.17L158.83-26.17 158.83-22.83Q161.27-28.83 166.59-28.83L166.59-28.83Q168.99-28.83 170.48-27.37L170.48-27.37Q172.01-25.88 172.01-23.24L172.01-23.24 172.01-22.9Q172.01-22.73 171.96-22.2 171.92-21.68 172-21.14 172.09-20.61 172.28-20.26L172.28-20.26Q172.55-19.75 173.28-19.46L173.28-19.46Q173.11-18.8 172.49-18.27 171.87-17.75 171.11-17.75L171.11-17.75 170.65-17.75Q169.69-16.55 167.99-16.06L167.99-16.06Q167.5-15.92 166.92-15.92 166.35-15.92 165.92-16.17 165.5-16.43 165.45-16.72L165.45-16.72Q165.91-16.94 165.91-17.6L165.91-17.6 165.91-17.72Q165.71-17.68 165.57-17.68L165.57-17.68 165.32-17.68Q164.52-17.68 163.87-18.29 163.22-18.9 163.03-19.82L163.03-19.82Q164.35-19.78 165.32-20.8L165.32-20.8Q166.2-21.7 166.2-22.66L166.2-22.66Q166.2-24.9 164.25-24.9L164.25-24.9Q162.57-24.9 160.86-22.22L160.86-22.22Q159.25-19.75 158.83-17.11L158.83-17.11 158.83-3.91Q159.1-3.05 159.66-2.64 160.22-2.22 161.2-2.22 162.17-2.22 162.71-2.64L162.71-2.64Q162.98-2.27 162.98-1.56 162.98-0.85 162.33-0.18 161.69 0.49 160.16 0.49 158.63 0.49 157.24-0.34L157.24-0.34Q156.27 0.49 154.88 0.49 153.48 0.49 152.34-0.29ZM154.45-11.88Q154.46-12.7 154.47-13.26 154.48-13.82 154.48-14.16L154.48-14.16 154.48-14.82Q154.48-15.19 154.47-15.76 154.46-16.33 154.45-17.05 154.44-17.77 154.41-18.46L154.41-18.46Q154.26-21 153.86-21.72 153.46-22.44 153.04-22.71L153.04-22.71 153.04-21.12Q153.04-17.02 152.86-16.3 152.68-15.58 152.27-15.22 151.87-14.87 151.09-14.6L151.09-14.6Q152.56-14.09 152.75-13.35L152.75-13.35Q153.04-12.18 153.04-8.08L153.04-8.08 153.04-6.49Q154.17-7.23 154.31-9.47L154.31-9.47Q154.44-11.06 154.45-11.88ZM196.48-0.29L196.48-0.29Q195.36 0.49 193.92 0.49 192.48 0.49 191.83-0.18 191.18-0.85 191.18-1.46L191.18-1.46Q191.18-2.27 191.45-2.64L191.45-2.64Q191.99-2.22 192.82-2.22L192.82-2.22Q194.38-2.22 194.85-3.74L194.85-3.74 194.85-11.33Q194.85-12.4 194.38-12.89L194.38-12.89Q193.67-13.7 191.87-14.58L191.87-14.58Q193.58-15.36 194.04-15.82L194.04-15.82Q194.85-16.63 194.85-17.8L194.85-17.8 194.85-21.36Q194.85-23.44 193.43-23.61L193.43-23.61Q193.02-23.66 192.38-23.66 191.75-23.66 191.21-23.24L191.21-23.24Q190.87-23.71 190.87-24.21 190.87-24.71 191.12-25.33 191.38-25.95 191.89-26.51L191.89-26.51Q193.19-27.83 194.88-27.83 196.58-27.83 197.7-27.29L197.7-27.29Q199.05-28.81 200.44-28.81 201.83-28.81 202.37-28.16 202.9-27.51 202.9-26.17L202.9-26.17 202.9-23.88Q204.17-26.15 206.37-27.48 208.57-28.81 211.03-28.81 213.5-28.81 215-28.16 216.5-27.51 217.48-26.32L217.48-26.32Q219.38-23.95 219.38-19.43L219.38-19.43 219.38-17.82Q219.38-16.65 219.9-16.14L219.9-16.14Q220.65-15.36 222.36-14.58L222.36-14.58Q220.53-13.67 220.07-13.21L220.07-13.21Q219.38-12.45 219.38-11.38L219.38-11.38 219.38-3.74Q219.85-2.22 221.41-2.22L221.41-2.22Q222.24-2.22 222.78-2.64L222.78-2.64Q223.04-2.27 223.04-1.56 223.04-0.85 222.4-0.18 221.75 0.49 220.41 0.49 219.07 0.49 217.97-0.27L217.97-0.27Q216.99 0.49 215.68 0.49 214.38 0.49 213.35-0.24L213.35-0.24Q212.28 0.49 211.06 0.49 209.84 0.49 209.13-0.12 208.42-0.73 208.42-1.88L208.42-1.88Q208.42-2.42 208.79-2.73L208.79-2.73Q209.35-2.29 209.91-2.29L209.91-2.29Q210.98-2.29 211.45-3.49L211.45-3.49 211.45-18.04Q211.45-22.78 209.13-23.54L209.13-23.54Q208.37-23.78 207.49-23.78 206.61-23.78 205.86-23.43 205.1-23.07 204.49-22.44L204.49-22.44Q203.15-21.02 202.9-19.07L202.9-19.07 202.9-3.49Q203.37-2.29 204.44-2.29L204.44-2.29Q205-2.29 205.56-2.73L205.56-2.73Q205.93-2.42 205.93-1.57 205.93-0.73 205.22-0.12 204.51 0.49 203.35 0.49 202.2 0.49 201.24-0.24L201.24-0.24Q200.32 0.49 198.97 0.49 197.63 0.49 196.48-0.29ZM213.79-15.77L213.79-6.47Q215.01-6.93 215.13-9.67L215.13-9.67Q215.28-12.4 215.28-14.82 215.28-17.24 215.09-18.81 214.89-20.39 214.52-21.28 214.16-22.17 213.66-22.57 213.16-22.97 212.57-23.27L212.57-23.27Q213.5-21.07 213.65-19.26 213.79-17.46 213.79-15.77L213.79-15.77ZM198.59-11.87Q198.61-12.67 198.62-13.22 198.63-13.77 198.63-14.11 198.63-14.45 198.63-14.81 198.63-15.16 198.62-15.75 198.61-16.33 198.59-17.04 198.58-17.75 198.53-18.43L198.53-18.43Q198.46-20.12 198.31-20.75L198.31-20.75Q198.02-22.17 197.19-22.71L197.19-22.71 197.19-21.12Q197.19-17.02 197.01-16.3 196.82-15.58 196.42-15.21 196.02-14.84 195.24-14.58L195.24-14.58Q196.7-14.06 196.9-13.35L196.9-13.35Q197.19-12.18 197.19-8.08L197.19-8.08 197.19-6.49Q198.31-7.23 198.48-9.47L198.48-9.47Q198.58-11.06 198.59-11.87ZM249.86-32.3L249.86-32.3Q248.61-32.3 247.45-32.96 246.29-33.62 245.68-34.72L245.68-34.72Q245.02-35.84 243.92-36.43L243.92-36.43Q243.58-36.6 243.14-36.79L243.14-36.79 243.97-37.3Q245.14-38.04 245.71-39.09 246.27-40.14 247.4-40.73 248.54-41.33 249.86-41.33L249.86-41.33Q252.59-41.33 253.81-39.04L253.81-39.04Q254.64-37.52 256.38-36.79L256.38-36.79Q256.01-36.57 255.66-36.4 255.3-36.23 254.98-36.01L254.98-36.01Q254.28-35.52 253.73-34.57 253.18-33.62 252.14-32.96 251.1-32.3 249.86-32.3ZM248.56-35.29Q248.42-35.55 248.33-35.9 248.25-36.25 248.25-37.16 248.25-38.06 249.17-39.45L249.17-39.45Q248.27-39.45 247.9-39.12 247.54-38.79 247.35-38.56 247.17-38.33 247.04-38.1 246.9-37.87 246.71-37.6L246.71-37.6Q246.24-36.94 245.95-36.79L245.95-36.79Q246.34-36.57 246.67-36.1 247-35.62 247.44-35.11L247.44-35.11Q248.1-34.3 249.17-34.3L249.17-34.3Q249.03-34.57 248.87-34.8 248.71-35.03 248.56-35.29ZM247.42-0.29L247.42-0.29Q246.29 0.49 244.86 0.49 243.44 0.49 242.74-0.15 242.04-0.78 242.04-1.37L242.04-1.37Q242.04-2.17 242.39-2.64L242.39-2.64Q242.92-2.22 243.97-2.22 245.02-2.22 245.78-3.59L245.78-3.59 245.78-11.38Q245.78-12.45 245.34-12.94L245.34-12.94Q244.63-13.67 242.8-14.58L242.8-14.58Q244.51-15.36 244.97-15.82L244.97-15.82Q245.78-16.63 245.78-17.8L245.78-17.8 245.78-21.36Q245.78-23.44 244.36-23.61L244.36-23.61Q243.95-23.66 243.31-23.66 242.68-23.66 242.14-23.24L242.14-23.24Q241.8-23.71 241.8-24.21 241.8-24.71 242.06-25.33 242.31-25.95 242.85-26.51L242.85-26.51Q244.12-27.83 245.78-27.83 247.44-27.83 248.78-27.25L248.78-27.25Q249.98-28.81 251.52-28.81L251.52-28.81Q254.03-28.81 254.03-26.17L254.03-26.17 254.03-17.8Q254.03-16.63 254.54-16.11L254.54-16.11Q255.3-15.36 257.01-14.58L257.01-14.58Q255.18-13.67 254.72-13.21L254.72-13.21Q254.03-12.45 254.03-11.38L254.03-11.38 254.03-3.52Q254.84-2.22 255.86-2.22 256.89-2.22 257.43-2.64L257.43-2.64Q257.77-2.17 257.77-1.48 257.77-0.78 257.07-0.15 256.38 0.49 254.98 0.49 253.59 0.49 252.4-0.29L252.4-0.29Q251.39 0.49 249.98 0.49 248.56 0.49 247.42-0.29ZM249.53-11.87Q249.54-12.7 249.55-13.26 249.56-13.82 249.56-14.16L249.56-14.16 249.56-14.82Q249.56-15.19 249.55-15.77 249.54-16.36 249.53-17.07 249.51-17.77 249.49-18.46L249.49-18.46Q249.39-20.14 249.25-20.78L249.25-20.78Q248.95-22.19 248.12-22.73L248.12-22.73 248.12-21.14Q248.12-17.02 247.94-16.3 247.76-15.58 247.35-15.22 246.95-14.87 246.17-14.6L246.17-14.6Q247.64-14.09 247.83-13.35L247.83-13.35Q248.12-12.18 248.12-8.06L248.12-8.06 248.12-6.47Q249.25-7.2 249.39-9.47L249.39-9.47Q249.51-11.04 249.53-11.87ZM282.16-0.29L282.16-0.29Q281.04 0.49 279.6 0.49 278.16 0.49 277.51-0.18 276.86-0.85 276.86-1.46L276.86-1.46Q276.86-2.27 277.13-2.64L277.13-2.64Q277.67-2.22 278.5-2.22L278.5-2.22Q280.06-2.22 280.53-3.74L280.53-3.74 280.53-11.33Q280.53-12.4 280.06-12.89L280.06-12.89Q279.35-13.7 277.55-14.58L277.55-14.58Q279.26-15.36 279.72-15.82L279.72-15.82Q280.53-16.63 280.53-17.8L280.53-17.8 280.53-21.36Q280.53-23.44 279.11-23.61L279.11-23.61Q278.7-23.66 278.06-23.66 277.43-23.66 276.89-23.24L276.89-23.24Q276.55-23.71 276.55-24.21 276.55-24.71 276.8-25.33 277.06-25.95 277.57-26.51L277.57-26.51Q278.87-27.83 280.56-27.83 282.26-27.83 283.38-27.29L283.38-27.29Q284.73-28.81 286.12-28.81 287.51-28.81 288.05-28.16 288.58-27.51 288.58-26.17L288.58-26.17 288.58-23.88Q289.85-26.15 292.05-27.48 294.25-28.81 296.71-28.81 299.18-28.81 300.68-28.16 302.18-27.51 303.16-26.32L303.16-26.32Q305.06-23.95 305.06-19.43L305.06-19.43 305.06-17.82Q305.06-16.65 305.58-16.14L305.58-16.14Q306.33-15.36 308.04-14.58L308.04-14.58Q306.21-13.67 305.75-13.21L305.75-13.21Q305.06-12.45 305.06-11.38L305.06-11.38 305.06-3.74Q305.53-2.22 307.09-2.22L307.09-2.22Q307.92-2.22 308.46-2.64L308.46-2.64Q308.72-2.27 308.72-1.56 308.72-0.85 308.08-0.18 307.43 0.49 306.09 0.49 304.75 0.49 303.65-0.27L303.65-0.27Q302.67 0.49 301.36 0.49 300.06 0.49 299.03-0.24L299.03-0.24Q297.96 0.49 296.74 0.49 295.52 0.49 294.81-0.12 294.1-0.73 294.1-1.88L294.1-1.88Q294.1-2.42 294.47-2.73L294.47-2.73Q295.03-2.29 295.59-2.29L295.59-2.29Q296.66-2.29 297.13-3.49L297.13-3.49 297.13-18.04Q297.13-22.78 294.81-23.54L294.81-23.54Q294.05-23.78 293.17-23.78 292.29-23.78 291.54-23.43 290.78-23.07 290.17-22.44L290.17-22.44Q288.83-21.02 288.58-19.07L288.58-19.07 288.58-3.49Q289.05-2.29 290.12-2.29L290.12-2.29Q290.68-2.29 291.24-2.73L291.24-2.73Q291.61-2.42 291.61-1.57 291.61-0.73 290.9-0.12 290.19 0.49 289.03 0.49 287.88 0.49 286.92-0.24L286.92-0.24Q286 0.49 284.65 0.49 283.31 0.49 282.16-0.29ZM299.47-15.77L299.47-6.47Q300.69-6.93 300.81-9.67L300.81-9.67Q300.96-12.4 300.96-14.82 300.96-17.24 300.77-18.81 300.57-20.39 300.2-21.28 299.84-22.17 299.34-22.57 298.84-22.97 298.25-23.27L298.25-23.27Q299.18-21.07 299.33-19.26 299.47-17.46 299.47-15.77L299.47-15.77ZM284.27-11.87Q284.29-12.67 284.3-13.22 284.31-13.77 284.31-14.11 284.31-14.45 284.31-14.81 284.31-15.16 284.3-15.75 284.29-16.33 284.27-17.04 284.26-17.75 284.21-18.43L284.21-18.43Q284.14-20.12 283.99-20.75L283.99-20.75Q283.7-22.17 282.87-22.71L282.87-22.71 282.87-21.12Q282.87-17.02 282.69-16.3 282.5-15.58 282.1-15.21 281.7-14.84 280.92-14.58L280.92-14.58Q282.38-14.06 282.58-13.35L282.58-13.35Q282.87-12.18 282.87-8.08L282.87-8.08 282.87-6.49Q283.99-7.23 284.16-9.47L284.16-9.47Q284.26-11.06 284.27-11.87ZM331.65 0.95L331.65 0.95Q329.9-0.66 329.9-3.05L329.9-3.05Q329.9-6.62 334.12-8.91L334.12-8.91Q331.36-10.84 330.09-15.01L330.09-15.01Q329.68-16.31 329.26-16.77L329.26-16.77Q328.65-17.5 327.16-18.24L327.16-18.24Q328.38-18.8 329.03-19.68 329.68-20.56 330.15-21.97 330.63-23.39 331.5-24.68 332.36-25.98 333.73-26.95L333.73-26.95Q336.73-29.05 341.47-29.05L341.47-29.05Q342.98-29.05 344.62-28.74L344.62-28.74Q344.96-31.4 346.99-33.25L346.99-33.25Q348.99-35.13 351.67-35.13L351.67-35.13Q354.82-35.13 356.97-33.5L356.97-33.5Q358.14-32.62 359.32-32.84L359.32-32.84Q359.41-30.88 357.8-30.32L357.8-30.32Q357.53-27.03 354.95-27.03L354.95-27.03Q353.92-27.03 353.7-27.17L353.7-27.17Q354.07-27.49 354.07-27.99 354.07-28.49 353.65-28.86L353.65-28.86Q353.14-27.91 351.36-27.91L351.36-27.91Q350.38-27.91 349.82-28.83L349.82-28.83Q350.75-29.13 351.28-29.72 351.82-30.32 351.82-30.83L351.82-30.83Q351.82-32.18 350.4-32.18L350.4-32.18Q347.67-32.18 347.21-27.93L347.21-27.93Q351.65-26.03 352.87-21.95L352.87-21.95Q353.68-19.19 355.85-18.24L355.85-18.24Q353.95-17.29 353.33-16.11L353.33-16.11Q353.09-15.65 352.9-15.01L352.9-15.01Q351.58-10.86 348.77-8.9 345.96-6.93 341.54-6.93L341.54-6.93Q338.74-6.93 336.66-7.62L336.66-7.62Q335.85-7.1 335.85-6.48 335.85-5.86 336.1-5.43 336.34-5 336.98-4.66L336.98-4.66Q338.22-4 341.71-3.49L341.71-3.49Q343.3-3.17 344.99-5.54L344.99-5.54Q345.08-4.3 345.55-3.67 346.01-3.05 346.57-2.98L346.57-2.98Q353.31-1.98 355.29 1.42L355.29 1.42Q355.97 2.56 355.97 4.36 355.97 6.15 354.82 7.85 353.68 9.55 351.72 10.74L351.72 10.74Q347.67 13.18 341.76 13.18L341.76 13.18Q334.83 13.18 331.17 10.91L331.17 10.91Q328.02 8.94 328.02 5.86L328.02 5.86Q328.02 3.81 330.09 1.98L330.09 1.98Q330.78 1.39 331.65 0.95ZM339.17-11.38Q339.71-10.62 340.25-10.41 340.79-10.21 341.51-10.21 342.23-10.21 342.76-10.41 343.3-10.62 343.67-11.13L343.67-11.13Q344.37-12.13 344.37-14.5L344.37-14.5 344.37-21.26Q344.37-23.63 343.84-24.39 343.3-25.15 342.76-25.35 342.23-25.56 341.51-25.56 340.79-25.56 340.25-25.35 339.71-25.15 339.37-24.66L339.37-24.66Q338.64-23.63 338.64-21.26L338.64-21.26 338.64-14.5Q338.64-12.13 339.17-11.38ZM346.74-24.71L346.74-11.55Q347.87-11.94 348.04-13.96L348.04-13.96Q348.21-15.87 348.21-18.24L348.21-18.24Q348.21-21.9 348.01-22.92L348.01-22.92Q347.72-24.29 346.74-24.71L346.74-24.71ZM334.02-11.55L334.02-11.55Q334.51-11.91 334.51-12.4L334.51-12.4Q334.51-13.04 334.34-13.62L334.34-13.62Q333.68-15.87 333.68-18.24L333.68-18.24Q333.68-20.58 334.34-22.83L334.34-22.83Q334.51-23.41 334.51-23.75L334.51-23.75 334.51-24.34Q334.51-24.56 334.32-24.71L334.32-24.71Q333.32-23.49 332.86-21.92 332.41-20.36 332.14-19.17L332.14-19.17Q332.05-18.8 330.78-18.24L330.78-18.24Q332.07-17.6 332.14-17.29L332.14-17.29 332.63-15.23Q333.27-12.65 334.02-11.55ZM332.78-2.86L332.78-2.86Q332.56-2.64 332.56-2.22L332.56-2.22Q332.66 0.42 340.08 1.76L340.08 1.76Q340.93 1.95 341.3 3.61L341.3 3.61Q341.42 3.08 342.26 2.72 343.11 2.37 343.4 2.39L343.4 2.39Q347.08 2.83 348.38 3.22L348.38 3.22Q350.67 3.93 351.72 5.32L351.72 5.32Q352.02 4.98 352.02 4.44 352.02 3.91 351.48 3.36 350.94 2.81 349.72 2.39L349.72 2.39Q347.62 1.64 344.03 1.22 340.44 0.81 338.99 0.49 337.54 0.17 336.32-0.29L336.32-0.29Q333.66-1.34 332.78-2.86ZM334.1 2.51L334.1 2.51Q332.36 3.27 332.36 5.35L332.36 5.35Q332.36 7.01 334.88 8.35L334.88 8.35Q337.69 9.86 342.13 9.86L342.13 9.86Q347.6 9.86 349.23 7.98L349.23 7.98Q349.7 7.47 349.7 6.9 349.7 6.32 349.15 5.88 348.6 5.44 347.72 5.18L347.72 5.18Q346.43 4.74 343.64 4.42L343.64 4.42Q342.3 4.27 340.32 6.4L340.32 6.4Q340.32 5.03 339.87 4.42 339.42 3.81 338.98 3.76L338.98 3.76Q336.15 3.39 334.1 2.51ZM409.13-0.17L409.13-0.17Q408.23 0.49 407.07 0.49 405.91 0.49 405.21-0.11 404.52-0.71 404.52-1.49 404.52-2.27 404.76-2.64L404.76-2.64Q405.47-2.22 407.01-2.22L407.01-2.22Q407.62-2.22 408.35-2.84 409.08-3.47 409.52-4.57L409.52-4.57 409.52-16.02Q409.52-17.16 409.03-17.72L409.03-17.72Q408.3-18.6 406.54-19.46L406.54-19.46Q408.33-20.31 408.79-20.87L408.79-20.87Q409.52-21.8 409.52-22.95L409.52-22.95 409.55-33.59Q408.96-35.13 406.96-35.13L406.96-35.13Q405.93-35.13 405.45-34.72L405.45-34.72Q405.2-35.03 405.2-35.55 405.2-36.06 405.42-36.47 405.64-36.89 406.03-37.21L406.03-37.21Q406.86-37.84 408.25-37.84 409.64-37.84 410.55-37.04L410.55-37.04Q411.35-37.84 412.43-37.84 413.5-37.84 414.26-36.94L414.26-36.94Q415.21-37.84 415.94-37.84 416.68-37.84 417.07-37.72 417.46-37.6 417.85-37.26L417.85-37.26Q418.63-36.65 419.48-34.79L419.48-34.79 428.83-15.38 436.55-34.4 437.23-35.99Q437.84-37.33 438.38-37.59 438.92-37.84 439.64-37.84 440.36-37.84 441.11-37.3L441.11-37.3Q442.04-37.84 443.54-37.84 445.04-37.84 446.14-37.04L446.14-37.04Q447.12-37.84 448.18-37.84 449.24-37.84 449.84-37.67 450.44-37.5 450.88-37.21L450.88-37.21Q451.81-36.55 451.81-35.57L451.81-35.57Q451.81-35.08 451.54-34.72L451.54-34.72Q451-35.13 450.17-35.13L450.17-35.13Q448.32-35.13 447.66-33.4L447.66-33.4 447.66-22.95Q447.66-21.75 448.17-21.17L448.17-21.17Q448.98-20.21 450.64-19.46L450.64-19.46Q448.85-18.58 448.37-18.02L448.37-18.02Q447.66-17.14 447.66-16.02L447.66-16.02 447.66-4.08Q448.49-2.22 450.66-2.22L450.66-2.22Q451.49-2.22 452.03-2.64L452.03-2.64Q452.3-2.27 452.3-1.79 452.3-1.32 452.02-0.9 451.73-0.49 451.25-0.2L451.25-0.2Q450.12 0.49 448.68 0.49 447.24 0.49 446-0.29L446-0.29Q444.85 0.49 443.38 0.49L443.38 0.49Q441.82 0.49 440.63-0.29L440.63-0.29Q439.38 0.49 438.32 0.49 437.26 0.49 436.57 0.31 435.89 0.12 435.38-0.2L435.38-0.2Q434.33-0.83 434.33-1.78L434.33-1.78Q434.33-2.27 434.6-2.64L434.6-2.64Q435.13-2.22 435.96-2.22L435.96-2.22Q438.14-2.22 438.97-4.08L438.97-4.08 438.97-30.76 429.44-7.18 428.39-4.79Q427.64-3.08 427.33-2.86 427.03-2.64 426.83-2.64L426.83-2.64Q426.22-2.64 425.98-2.76L425.98-2.76 412.94-28.47 412.94-4.59Q413.4-3.47 414.21-2.84 415.02-2.22 416.02-2.22 417.02-2.22 417.73-2.64L417.73-2.64Q417.99-2.2 417.99-1.43 417.99-0.66 417.24-0.09 416.48 0.49 415.28 0.49 414.09 0.49 413.09-0.12L413.09-0.12Q412.21 0.49 411.07 0.49 409.94 0.49 409.13-0.17ZM424.83-13.65L416.38-30.54Q416.14-30.18 416.14-29.49L416.14-29.49Q416.14-27.51 417.8-24.24L417.8-24.24 426.69-6.49Q426.86-6.71 426.86-7.42L426.86-7.42Q426.86-9.55 424.83-13.65L424.83-13.65ZM441.31-30.52L441.31-6.47Q442.53-6.93 442.65-9.67L442.65-9.67Q442.8-12.4 442.8-17.24 442.8-22.07 442.79-23.67 442.77-25.27 442.75-26.25L442.75-26.25Q442.68-29.13 442.2-29.72 441.72-30.32 441.31-30.52L441.31-30.52ZM412.62-5.86L412.6-6.15Q412.6-5.96 412.62-5.86L412.62-5.86ZM409.84-5.86L409.86-6.15Q409.84-6.05 409.84-5.86L409.84-5.86ZM490.46-2.32L490.46-2.32Q488.24 0.61 483.8 0.61L483.8 0.61Q478.38 0.61 475.67-2.64L475.67-2.64Q474.49-4.03 474.05-5.74L474.05-5.74Q473.81-6.76 473.2-7.31 472.59-7.86 471.69-8.3L471.69-8.3Q473.44-9.11 474.2-11.33L474.2-11.33Q475.01-13.67 476.89-14.72L476.89-14.72Q478.91-15.82 481.35-15.88 483.8-15.94 484.97-16.04 486.14-16.14 487.04-16.36L487.04-16.36Q488.73-16.75 489.68-17.8L489.68-17.8 489.68-21.46Q489.68-23.88 488.69-25 487.7-26.12 485.69-26.12 483.67-26.12 482.71-25.38 481.74-24.63 481.74-23.39L481.74-23.39Q481.74-21.48 483.7-21.53L483.7-21.53Q483.31-19.63 481.65-19.63L481.65-19.63Q481.16-19.63 480.7-19.8L480.7-19.8 480.7-19.73Q480.7-19.09 481.28-18.92L481.28-18.92Q480.67-17.99 479.23-18.02 477.79-18.04 476.98-19.56L476.98-19.56Q476.62-19.46 476.14-19.46 475.67-19.46 475.09-19.78 474.52-20.09 474.18-20.65L474.18-20.65Q475.4-21.39 475.67-22.92L475.67-22.92Q475.96-24.8 478.67-26.73L478.67-26.73Q481.94-29.05 487.02-29.05L487.02-29.05Q495.44-29.05 497.3-23.88L497.3-23.88Q497.91-22.14 497.91-19.78L497.91-19.78 497.91-17.8Q497.91-16.6 498.51-15.84 499.1-15.09 500.54-14.6L500.54-14.6Q499.01-13.89 498.57-13.33L498.57-13.33Q497.91-12.48 497.91-11.38L497.91-11.38 497.91-4.05Q498.61-2.22 499.93-2.22L499.93-2.22Q500.76-2.22 501.3-2.64L501.3-2.64Q501.64-2.17 501.64-1.48 501.64-0.78 500.95-0.15 500.25 0.49 498.86 0.49 497.47 0.49 496.27-0.29L496.27-0.29Q495.22 0.49 494.4 0.49 493.59 0.49 492.99 0.33 492.39 0.17 491.88-0.17L491.88-0.17Q490.73-0.93 490.46-2.32ZM492-22.73L492-6.47Q493.41-7.03 493.49-11.87L493.49-11.87Q493.49-12.89 493.49-14.21 493.49-15.53 493.48-16.47 493.46-17.41 493.44-18.26L493.44-18.26Q493.34-21.34 492.88-21.94 492.41-22.53 492-22.73L492-22.73ZM482.99-8.2L482.99-8.2Q482.99-7.18 483.21-6.2 483.43-5.22 483.87-4.49L483.87-4.49Q484.85-2.95 486.63-2.95L486.63-2.95Q487.97-2.95 488.85-4.05L488.85-4.05Q489.68-5.13 489.68-6.81L489.68-6.81 489.68-14.77Q488.12-13.87 485.68-13.53L485.68-13.53Q482.99-13.11 482.99-8.2ZM479.33-2.71L479.33-2.71Q479.57-2.88 479.57-3.15L479.57-3.15Q479.57-3.52 479.23-4.17L479.23-4.17Q478.01-6.42 478.01-7.86 478.01-9.3 478.12-9.94 478.23-10.57 478.41-11.02 478.6-11.47 478.83-11.82 479.06-12.16 479.23-12.43L479.23-12.43Q479.55-12.99 479.55-13.2 479.55-13.4 479.33-13.55L479.33-13.55Q478.33-13.09 477.86-12.45L477.86-12.45Q477.03-11.33 476.64-9.55L476.64-9.55Q476.54-9.03 474.93-8.3L474.93-8.3Q476.5-7.59 476.64-7.06L476.64-7.06Q477.47-4.15 479.33-2.71ZM544.71 0.49L544.71 0.49Q542.22 0.49 540.83-2.2L540.83-2.2Q539.1-0.2 536.19 0.44L536.19 0.44Q535.34 0.61 534.51 0.61L534.51 0.61Q529.38 0.61 526.55-2.64L526.55-2.64Q523.96-5.64 523.64-11.13L523.64-11.13Q523.6-12.21 523.16-12.77L523.16-12.77Q522.42-13.7 520.67-14.55L520.67-14.55Q523.55-15.87 523.67-18.6 523.79-21.34 524.63-23.28 525.48-25.22 526.89-26.46L526.89-26.46Q529.6-28.81 534.46-28.81L534.46-28.81Q537.12-28.81 539.07-27.44L539.07-27.44Q539.73-26.98 540.2-26.37L540.2-26.37 540.2-31.62Q540.2-34.4 537.93-34.4L537.93-34.4Q537.1-34.4 536.56-33.98L536.56-33.98Q536.22-34.45 536.22-34.95 536.22-35.45 536.47-35.91 536.73-36.38 537.27-36.77L537.27-36.77Q538.42-37.6 540.17-37.6 541.93-37.6 542.91-37.38L542.91-37.38Q544.25-39.06 545.93-39.06L545.93-39.06Q548.45-39.06 548.45-36.43L548.45-36.43 548.45-17.8Q548.45-15.94 551.43-14.58L551.43-14.58Q548.45-13.23 548.45-11.38L548.45-11.38 548.45-4.05Q549.16-2.22 550.48-2.22L550.48-2.22Q551.31-2.22 551.84-2.64L551.84-2.64Q552.18-2.17 552.18-1.48 552.18-0.78 551.49-0.15 550.79 0.49 549.4 0.49 548.01 0.49 546.81-0.29L546.81-0.29Q545.76 0.49 544.71 0.49ZM542.54-30.52L542.54-6.47Q543.76-6.93 543.86-9.38L543.86-9.38Q543.88-9.94 543.9-10.75 543.91-11.57 543.93-12.57 543.96-13.57 543.96-14.6L543.96-14.6 544.01-16.55Q544.01-17.5 544.02-18.23 544.03-18.95 544.03-19.36L544.03-19.36 544.03-19.73Q544.03-19.8 544.02-20.42 544.01-21.04 543.99-21.96 543.98-22.88 543.96-23.93L543.96-23.93 543.91-25.98Q543.86-28.22 543.74-28.83L543.74-28.83Q543.54-30.05 542.54-30.52L542.54-30.52ZM535.8-25.24L535.8-25.24Q531.9-25.24 531.9-19.51L531.9-19.51 531.9-8.81Q531.9-4.35 534.85-3.27L534.85-3.27Q535.68-2.95 536.5-2.95 537.32-2.95 537.99-3.28 538.66-3.61 539.15-4.15L539.15-4.15Q540.2-5.35 540.2-7.01L540.2-7.01 540.2-19.51Q540.2-24 537.46-24.95L537.46-24.95Q536.66-25.24 535.8-25.24ZM527.92-6.47L527.92-6.47Q528.26-6.74 528.26-7.08L528.26-7.08Q528.26-7.62 528.04-8.45L528.04-8.45Q527.04-12.28 527.04-13.76 527.04-15.23 527.14-16.09 527.23-16.94 527.4-17.77L527.4-17.77Q527.72-19.53 528.04-20.75L528.04-20.75Q528.26-21.58 528.26-21.88L528.26-21.88Q528.26-22.46 527.92-22.73L527.92-22.73Q526.89-21.51 526.35-19.43 525.82-17.36 525.48-15.8L525.48-15.8Q525.35-15.16 524.04-14.55L524.04-14.55Q525.35-13.94 525.48-13.31L525.48-13.31Q526.38-9.18 526.97-8.08 527.55-6.98 527.92-6.47ZM593.79-7.37L593.79-7.37Q594.33-8.4 595.77-8.4L595.77-8.4Q596.75-8.4 597.28-7.59L597.28-7.59Q597.72-6.96 597.72-6.04 597.72-5.13 597.26-4.2 596.79-3.27 595.99-2.51 595.18-1.76 594.15-1.17 593.11-0.59 591.94-0.2L591.94-0.2Q589.52 0.61 586.91 0.61 584.29 0.61 582.01-0.26 579.73-1.12 578.09-2.69L578.09-2.69Q574.9-5.76 574.19-11.13L574.19-11.13Q574.02-12.33 573.63-12.84L573.63-12.84Q572.89-13.75 571.21-14.58L571.21-14.58Q573.33-15.53 573.92-17.63L573.92-17.63Q574.09-18.21 574.19-18.8L574.19-18.8Q574.8-23.1 578.53-26.12L578.53-26.12Q582.15-29.05 586.61-29.05L586.61-29.05Q591.25-29.05 594.65-25.78L594.65-25.78Q598.16-22.41 598.16-17.5L598.16-17.5Q598.16-17.33 598.15-17.16 598.14-16.99 598.16-16.85L598.16-16.85Q598.21-16.53 598.55-16.48L598.55-16.48Q598.99-15.92 598.99-15.28L598.99-15.28Q598.99-13.82 597.43-13.55L597.43-13.55Q597.04-13.48 596.21-13.35L596.21-13.35 582.44-11.16 582.44-8.81Q582.44-5.98 584.15-4.32L584.15-4.32Q585.76-2.73 588.23-2.73L588.23-2.73Q590.84-2.73 592.42-3.81L592.42-3.81Q593.91-4.83 593.91-6.49L593.91-6.49Q593.91-6.88 593.79-7.37ZM582.44-14.11L589.52-15.26 589.52-22.09Q589.52-23.71 588.88-24.46L588.88-24.46Q587.76-25.76 586.66-25.76 585.56-25.76 584.83-25.43 584.1-25.1 583.56-24.39L583.56-24.39Q582.44-22.9 582.44-19.75L582.44-19.75 582.44-14.11ZM591.62-15.63L593.13-15.87 593.13-16.63Q593.13-21.17 592.38-22.12L592.38-22.12Q592.03-22.53 591.62-22.73L591.62-22.73 591.62-15.63ZM578.46-6.47L578.46-6.47Q578.8-6.74 578.8-7.08L578.8-7.08Q578.8-7.62 578.58-8.45L578.58-8.45Q577.58-12.28 577.58-13.78 577.58-15.28 577.68-16.13 577.78-16.97 577.95-17.82L577.95-17.82Q578.24-19.48 578.58-20.75L578.58-20.75Q578.8-21.58 578.8-21.88L578.8-21.88Q578.8-22.46 578.46-22.73L578.46-22.73Q577.43-21.51 576.9-19.46 576.36-17.41 576.02-15.84L576.02-15.84Q575.9-15.19 574.58-14.58L574.58-14.58Q575.9-13.96 576.02-13.35L576.02-13.35Q576.92-9.23 577.51-8.11 578.09-6.98 578.46-6.47ZM657.6 0.49L657.6 0.49Q655.99 0.49 654.74-0.29L654.74-0.29Q653.5 0.49 652.43 0.49 651.37 0.49 650.69 0.31 650 0.12 649.49-0.2L649.49-0.2Q648.44-0.83 648.44-1.78L648.44-1.78Q648.44-2.27 648.71-2.64L648.71-2.64Q649.25-2.22 650.08-2.22L650.08-2.22Q652.25-2.22 653.08-4.08L653.08-4.08 653.08-16.02Q653.08-17.14 652.62-17.68L652.62-17.68Q651.88-18.58 650.1-19.46L650.1-19.46Q651.76-20.21 652.25-20.8L652.25-20.8Q653.08-21.75 653.08-22.95L653.08-22.95 653.08-33.25Q652.25-35.13 650.08-35.13L650.08-35.13Q649.25-35.13 648.71-34.72L648.71-34.72Q648.44-35.08 648.44-35.56 648.44-36.04 648.72-36.45 649-36.87 649.49-37.16L649.49-37.16Q650.61-37.84 652.07-37.84 653.52-37.84 654.74-37.04L654.74-37.04Q656.01-37.84 657.65-37.84 659.28-37.84 660.62-36.89L660.62-36.89Q663.21-37.84 666.61-37.84L666.61-37.84Q669.12-37.84 670.9-37.35L670.9-37.35 673.08-36.77Q673.47-36.67 673.83-36.67L673.83-36.67Q674.52-36.67 674.52-37.65L674.52-37.65Q674.52-37.89 674.35-38.48L674.35-38.48Q675.03-38.6 676.08-38.6 677.13-38.6 677.86-37.9 678.59-37.21 678.59-35.9 678.59-34.59 678.13-33.98L678.13-33.98Q678.79-33.01 678.79-31.6 678.79-30.2 677.84-29.25L677.84-29.25Q678.13-28.52 678.13-27.82 678.13-27.12 677.9-26.55 677.67-25.98 677.32-25.59L677.32-25.59Q676.64-24.88 675.93-24.88L675.93-24.88Q674.91-24.88 674.08-25.32L674.08-25.32Q674.37-25.9 674.37-27.05L674.37-27.05Q674.37-29.74 673.03-31.76L673.03-31.76Q671.2-34.55 667.53-34.55L667.53-34.55Q665.68-34.55 664.18-33.64 662.68-32.74 662.06-31.05L662.06-31.05 662.06-21.61Q662.92-21.07 663.66-21.07 664.41-21.07 664.79-21.09 665.17-21.12 665.56-21.19L665.56-21.19Q666.56-21.34 667.09-21.58L667.09-21.58Q668.12-22.07 668.12-23.97L668.12-23.97Q668.12-25.05 667.61-25.63L667.61-25.63Q668.1-25.98 668.83-25.98L668.83-25.98Q670.46-25.98 671.2-24.66L671.2-24.66Q671.46-24.19 671.46-23.63 671.46-23.07 671.17-22.24L671.17-22.24Q672.17-21.09 672.17-19.52 672.17-17.94 671.17-16.8L671.17-16.8Q671.46-15.97 671.46-15.3 671.46-14.62 671.2-14.01 670.93-13.4 670.54-13.04L670.54-13.04Q669.78-12.35 668.83-12.35L668.83-12.35Q668.14-12.35 667.61-12.74L667.61-12.74Q668.12-13.6 668.12-14.75L668.12-14.75Q668.12-17.02 666.87-17.55L666.87-17.55Q665.78-17.99 664.36-17.99 662.94-17.99 662.06-17.48L662.06-17.48 662.06-5.27Q663.48-2.78 667.53-2.78L667.53-2.78Q672.12-2.78 673.78-5.62L673.78-5.62Q675.71-8.86 675.71-12.57L675.71-12.57Q675.71-13.65 675.52-14.23L675.52-14.23Q676.13-14.84 676.79-14.84 677.45-14.84 677.79-14.66 678.13-14.48 678.4-14.21L678.4-14.21Q678.98-13.55 678.98-12.87L678.98-12.87 678.84-11.67Q678.84-11.21 679.08-10.91L679.08-10.91Q679.57-10.4 679.57-9.95 679.57-9.5 679.28-8.86L679.28-8.86Q679.84-8.54 680.29-7.92 680.74-7.3 680.74-6.64L680.74-6.64Q680.74-5.25 679.57-4.15L679.57-4.15Q680.08-3.42 680.08-2.04 680.08-0.66 679.29 0.31 678.5 1.27 677.23 1.27L677.23 1.27Q676.54 1.27 675.81 1.12L675.81 1.12Q675.91 0.59 675.91 0.05L675.91 0.05Q675.91-1.07 674.88-1.07L674.88-1.07Q673.73-1.07 672.59-0.61L672.59-0.61Q669.88 0.49 666.42 0.49 662.97 0.49 660.55-0.42L660.55-0.42Q659.28 0.49 657.6 0.49ZM655.42-9.64L655.42-6.47Q656.64-6.93 656.77-9.67L656.77-9.67Q656.91-12.4 656.91-17.24 656.91-22.07 656.9-23.67 656.89-25.27 656.86-26.25L656.86-26.25Q656.79-29.13 656.32-29.72 655.84-30.32 655.42-30.52L655.42-30.52Q655.42-22.02 655.13-20.85L655.13-20.85Q654.79-19.87 653.47-19.46L653.47-19.46Q654.94-18.95 655.13-18.21L655.13-18.21Q655.42-17.04 655.42-9.64L655.42-9.64ZM661.6-6.59L661.58-6.71Q661.58-6.64 661.6-6.59L661.6-6.59ZM718.22-2.32L718.22-2.32Q716 0.61 711.56 0.61L711.56 0.61Q706.14 0.61 703.43-2.64L703.43-2.64Q702.26-4.03 701.82-5.74L701.82-5.74Q701.57-6.76 700.96-7.31 700.35-7.86 699.45-8.3L699.45-8.3Q701.21-9.11 701.96-11.33L701.96-11.33Q702.77-13.67 704.65-14.72L704.65-14.72Q706.67-15.82 709.12-15.88 711.56-15.94 712.73-16.04 713.9-16.14 714.8-16.36L714.8-16.36Q716.49-16.75 717.44-17.8L717.44-17.8 717.44-21.46Q717.44-23.88 716.45-25 715.46-26.12 713.45-26.12 711.44-26.12 710.47-25.38 709.51-24.63 709.51-23.39L709.51-23.39Q709.51-21.48 711.46-21.53L711.46-21.53Q711.07-19.63 709.41-19.63L709.41-19.63Q708.92-19.63 708.46-19.8L708.46-19.8 708.46-19.73Q708.46-19.09 709.04-18.92L709.04-18.92Q708.43-17.99 706.99-18.02 705.55-18.04 704.75-19.56L704.75-19.56Q704.38-19.46 703.9-19.46 703.43-19.46 702.85-19.78 702.28-20.09 701.94-20.65L701.94-20.65Q703.16-21.39 703.43-22.92L703.43-22.92Q703.72-24.8 706.43-26.73L706.43-26.73Q709.7-29.05 714.78-29.05L714.78-29.05Q723.2-29.05 725.06-23.88L725.06-23.88Q725.67-22.14 725.67-19.78L725.67-19.78 725.67-17.8Q725.67-16.6 726.27-15.84 726.87-15.09 728.31-14.6L728.31-14.6Q726.77-13.89 726.33-13.33L726.33-13.33Q725.67-12.48 725.67-11.38L725.67-11.38 725.67-4.05Q726.38-2.22 727.7-2.22L727.7-2.22Q728.53-2.22 729.06-2.64L729.06-2.64Q729.4-2.17 729.4-1.48 729.4-0.78 728.71-0.15 728.01 0.49 726.62 0.49 725.23 0.49 724.03-0.29L724.03-0.29Q722.98 0.49 722.17 0.49 721.35 0.49 720.75 0.33 720.15 0.17 719.64-0.17L719.64-0.17Q718.49-0.93 718.22-2.32ZM719.76-22.73L719.76-6.47Q721.18-7.03 721.25-11.87L721.25-11.87Q721.25-12.89 721.25-14.21 721.25-15.53 721.24-16.47 721.23-17.41 721.2-18.26L721.2-18.26Q721.1-21.34 720.64-21.94 720.18-22.53 719.76-22.73L719.76-22.73ZM710.75-8.2L710.75-8.2Q710.75-7.18 710.97-6.2 711.19-5.22 711.63-4.49L711.63-4.49Q712.61-2.95 714.39-2.95L714.39-2.95Q715.73-2.95 716.61-4.05L716.61-4.05Q717.44-5.13 717.44-6.81L717.44-6.81 717.44-14.77Q715.88-13.87 713.44-13.53L713.44-13.53Q710.75-13.11 710.75-8.2ZM707.09-2.71L707.09-2.71Q707.33-2.88 707.33-3.15L707.33-3.15Q707.33-3.52 706.99-4.17L706.99-4.17Q705.77-6.42 705.77-7.86 705.77-9.3 705.88-9.94 705.99-10.57 706.17-11.02 706.36-11.47 706.59-11.82 706.82-12.16 706.99-12.43L706.99-12.43Q707.31-12.99 707.31-13.2 707.31-13.4 707.09-13.55L707.09-13.55Q706.09-13.09 705.63-12.45L705.63-12.45Q704.79-11.33 704.4-9.55L704.4-9.55Q704.31-9.03 702.7-8.3L702.7-8.3Q704.26-7.59 704.4-7.06L704.4-7.06Q705.23-4.15 707.09-2.71ZM754.58-0.59L754.58-0.59Q752.92 1 751.38 1L751.38 1Q750.53 1 750.21 0.37L750.21 0.37Q750.77-0.2 750.77-0.76 750.77-1.32 750.6-1.61L750.6-1.61 750.28-2.17 750.67-1.44Q750.09-1.71 749.77-2.34 749.45-2.98 749.45-3.89 749.45-4.81 750.48-5.98L750.48-5.98Q749.99-6.67 749.99-7.5 749.99-8.33 750.27-8.87 750.55-9.42 750.99-9.86L750.99-9.86Q751.97-10.79 753.07-10.79L753.07-10.79Q753.8-10.79 754.12-10.28L754.12-10.28Q753.46-9.57 753.46-8.04 753.46-6.52 753.98-5.44 754.51-4.37 755.41-3.61L755.41-3.61Q757.32-2 760.1-2L760.1-2Q763.2-2 764.4-4.27L764.4-4.27Q764.74-4.96 764.74-5.65 764.74-6.35 764.42-6.9 764.1-7.45 763.59-7.96L763.59-7.96Q762.74-8.79 760.98-9.86L760.98-9.86Q759.29-11.06 757-11.06L757-11.06Q755.51-11.06 755-10.82L755-10.82Q755.31-11.55 755.31-12.28 755.31-13.01 754.34-13.88 753.36-14.75 752.59-15.63 751.82-16.5 751.36-17.38L751.36-17.38Q750.43-19.04 750.43-20.9 750.43-22.75 751.2-24.18 751.97-25.61 753.36-26.64L753.36-26.64Q756.27-28.81 760.81-28.81L760.81-28.81Q763-28.81 763.82-28.61 764.64-28.42 765.13-28.25L765.13-28.25Q765.79-28 766.74-28 767.69-28 768.07-28.42 768.45-28.83 768.45-29.19 768.45-29.54 768.37-29.74L768.37-29.74Q768.52-29.79 768.81-29.79 769.11-29.79 769.49-29.61 769.86-29.44 770.16-29.15L770.16-29.15Q770.74-28.49 770.74-27.75 770.74-27 770.45-26.61L770.45-26.61Q771.13-25.98 771.13-24.8 771.13-23.63 770.16-22.83L770.16-22.83Q770.38-22.39 770.38-21.75 770.38-21.12 769.69-20.53 769.01-19.95 768.4-19.95L768.4-19.95Q767.35-19.95 766.98-20.21L766.98-20.21Q767.3-21 767.3-21.91 767.3-22.83 766.81-23.66 766.32-24.49 765.57-25L765.57-25Q764.15-25.98 762.2-25.98L762.2-25.98Q759.73-25.98 758.88-24.41L758.88-24.41Q758.61-23.93 758.61-23.35 758.61-22.78 758.77-22.3 758.93-21.83 759.29-21.34L759.29-21.34Q760-20.39 761.29-19.53L761.29-19.53Q762.98-18.43 763.64-18.43L763.64-18.43Q765.05-18.43 766.1-19.12L766.1-19.12Q765.81-17.94 765.81-17.48L765.81-17.48Q765.81-16.77 766.93-15.84L766.93-15.84Q770.08-13.67 771.23-11.87L771.23-11.87Q772.33-10.11 772.33-7.96 772.33-5.81 771.38-4.28 770.43-2.76 768.79-1.66L768.79-1.66Q765.4 0.61 760.56 0.61L760.56 0.61Q757.27 0.61 754.58-0.59ZM753.73-22.95L753.73-22.95Q753.02-22.61 753.02-21.06 753.02-19.51 754.02-18.1 755.02-16.7 757.19-14.94L757.19-14.94Q757.71-14.55 757.71-14.18L757.71-14.18Q757.71-13.62 757.61-13.28L757.61-13.28Q757.9-13.35 758.63-13.43L758.63-13.43Q760.42-13.6 763.05-11.77L763.05-11.77Q767.25-9.18 767.25-6.32L767.25-6.32Q767.25-5.25 766.96-4.71L766.96-4.71Q767.84-4.88 768.3-6.2L768.3-6.2Q768.42-6.59 768.42-7.01L768.42-7.01Q768.42-8.98 766.29-11.02 764.15-13.06 760.15-14.97L760.15-14.97Q753.51-18.33 753.73-22.95ZM821.36-25.17L821.36-25.17Q820.82-25.51 819.65-25.51L819.65-25.51Q817.31-25.51 816.11-22.34L816.11-22.34 815.35-20.21Q814.52-17.9 814.51-17.04 814.5-16.19 814.8-15.66 815.11-15.14 816.18-14.58L816.18-14.58Q813.55-13.84 812.59-12.11L812.59-12.11Q812.3-11.57 812.08-10.99L812.08-10.99 808.03 0.02Q805.66 6.84 803.63 9.25L803.63 9.25Q801.78 11.47 799 11.47L799 11.47Q796.87 11.47 794.99 10.11L794.99 10.11Q792.84 8.57 792.84 6.49L792.84 6.49Q792.84 5.2 793.53 4.53 794.21 3.86 794.78 3.86 795.36 3.86 795.58 3.87 795.8 3.88 796.02 3.96L796.02 3.96Q796.46 4.15 796.85 4.83L796.85 4.83Q796.33 5.81 797.51 6.98L797.51 6.98Q798.6 8.13 799.57 8.13 800.53 8.13 801.18 7.76 801.83 7.4 802.34 6.64L802.34 6.64Q803.46 4.98 803.46 1.88L803.46 1.88Q803.46 0.2 802.56-1.83L802.56-1.83Q802.32-2.51 801.97-3.27L801.97-3.27 798.51-11.08Q797.95-12.33 796.81-13.29 795.68-14.26 794.26-14.58L794.26-14.58Q795.94-15.43 795.94-16.82L795.94-16.82Q795.94-17.82 795.14-19.78L795.14-19.78 793.7-23.24Q793.06-24.66 792.65-25.02L792.65-25.02Q791.92-25.61 790.95-25.61 789.99-25.61 789.45-25.2L789.45-25.2Q789.16-25.49 789.14-26.05 789.13-26.61 789.28-26.99 789.43-27.37 789.77-27.66L789.77-27.66Q790.5-28.32 791.88-28.32 793.26-28.32 794.48-27.44L794.48-27.44Q795.48-28.32 796.92-28.32 798.36-28.32 799.46-27.51L799.46-27.51Q800.56-28.32 801.93-28.32 803.29-28.32 804.09-27.67 804.88-27.03 804.9-26.39L804.9-26.39Q804.93-25.44 804.59-25.1L804.59-25.1Q804-25.54 803.37-25.54 802.73-25.54 802.33-25.17 801.93-24.8 801.97-23.97L801.97-23.97 807.61-8.74 812.96-24.39Q812.69-25.63 811.18-25.63L811.18-25.63Q810.23-25.63 809.37-25.17L809.37-25.17Q809.13-25.63 809.14-26.37 809.15-27.1 809.82-27.71 810.49-28.32 811.65-28.32 812.81-28.32 813.64-27.54L813.64-27.54Q814.52-28.32 815.62-28.32 816.72-28.32 817.62-27.64L817.62-27.64Q818.45-28.32 819.47-28.32 820.48-28.32 821.08-27.73 821.68-27.15 821.65-26.51L821.65-26.51Q821.6-25.54 821.36-25.17ZM802.34-12.08L797.85-22.73Q797.29-22.36 797.3-21.8 797.31-21.24 797.35-20.94 797.38-20.63 797.48-20.21L797.48-20.21Q797.7-19.43 798.37-17.91 799.04-16.38 799.08-16 799.12-15.63 798.82-15.17 798.53-14.72 798.12-14.58L798.12-14.58Q799.68-14.28 800.05-13.48L800.05-13.48Q800.22-13.13 800.53-12.4L800.53-12.4 802.19-8.69Q802.68-7.57 803.22-6.47L803.22-6.47Q804.22-7.69 802.34-12.08L802.34-12.08Z" opacity="1" transform="matrix(1,0,0,1,0,0)" fill="black" class="slogan-text-1" id="SvgjsPath1650" stroke-width="5" stroke="black" stroke-linejoin="round"></path></svg></g></svg></g></svg></g></svg></g><g></g></svg></g></svg></g></svg></g></mask><g mask="url(#c46e9756-257c-4c33-87ac-88f57ba30640)"><g><path d="M99.371 140.94v0l-4.693 49.399-93.695 7.383c0.456-25.915 0.957-51.663 1.504-77.244 0.577-25.581 1.261-51.313 2.051-77.197v0h57.875c-1.701 16.254-3.327 32.477-4.876 48.67-1.58 16.193-2.704 32.523-3.372 48.989v0c3.494 0.152 6.942 0.228 10.344 0.228 3.433 0 6.881 0 10.345 0v0c4.162 0 8.248-0.03 12.259-0.091 4.01-0.091 8.097-0.137 12.259-0.137zM203.365 46.607l52.544-1.777-8.021 150.887-58.331 5.331-31.125-80.797-4.922 82.347h-50.037l4.01-157.768 55.597-2.689 38.508 80.115zM394.537 97.328v0c0 7.2-1.079 13.58-3.236 19.14-2.157 5.56-5.104 10.421-8.84 14.583-3.767 4.162-8.172 7.686-13.216 10.572-5.043 2.886-10.436 5.241-16.178 7.064-5.742 1.823-11.697 3.16-17.864 4.01-6.137 0.851-12.183 1.306-18.137 1.367v0 51.861h-51.815c0-16.983 0.03-33.89 0.091-50.721 0.091-16.831 0.197-33.814 0.319-50.949v0c0.152-9.053 0.197-18.107 0.137-27.161-0.091-9.053 0.091-18.183 0.547-27.388v0c9.509-2.795 19.003-4.907 28.482-6.334 9.509-1.398 19.307-2.096 29.393-2.097v0c5.712 0 11.423 0.456 17.135 1.368 5.712 0.942 11.18 2.415 16.406 4.42 5.226 2.005 10.071 4.512 14.537 7.519 4.496 3.008 8.385 6.577 11.666 10.709 3.251 4.162 5.818 8.902 7.702 14.219 1.914 5.286 2.871 11.226 2.871 17.818zM345.138 101.111v0c0-4.8-1.473-8.552-4.421-11.257-2.917-2.734-6.714-4.101-11.393-4.101v0c-1.549 0-3.16 0.137-4.83 0.41-1.671 0.273-3.251 0.592-4.74 0.957v0l-1.321 32.493c1.033 0.152 2.036 0.228 3.008 0.227 0.942 0 1.929 0 2.962 0v0c2.674 0 5.256-0.456 7.747-1.367 2.491-0.881 4.694-2.157 6.608-3.828 1.944-1.671 3.494-3.631 4.648-5.878 1.154-2.279 1.732-4.831 1.732-7.656z" fill="#f9cc0b" fill-rule="nonzero" stroke="none" stroke-width="1" stroke-linecap="butt" stroke-linejoin="miter" stroke-miterlimit="10" stroke-dasharray="" stroke-dashoffset="0" font-family="none" font-weight="none" font-size="none" text-anchor="none" style="mix-blend-mode: normal" data-fill-palette-color="tertiary"></path></g></g><g transform="matrix(1,0,0,1,0,80.16132617519267)"><svg viewBox="0 0 395.52 86.87734764961465" height="86.87734764961465" width="395.52"><g><svg viewBox="0 0 395.52 86.87734764961465" height="86.87734764961465" width="395.52"><g><svg viewBox="0 0 395.52 86.87734764961465" height="86.87734764961465" width="395.52"><g><svg viewBox="0 0 395.52 86.87734764961465" height="86.87734764961465" width="395.52"><g id="textblocktransform"><svg viewBox="0 0 395.52 86.87734764961465" height="86.87734764961465" width="395.52" id="textblock"><g><svg viewBox="0 0 395.52 51.97221975840841" height="51.97221975840841" width="395.52"><g transform="matrix(1,0,0,1,0,0)"><svg width="395.52" viewBox="-1.88 -38.79 315.86 42.38" height="51.97221975840841" data-palette-color="#f9cc0b"><path d="M22.71-13.92L22.71-13.92 21.68-3.08 1.12-1.46Q1.27-9.99 1.45-18.41 1.64-26.83 1.9-35.35L1.9-35.35 14.6-35.35Q14.04-30 13.53-24.67 13.01-19.34 12.79-13.92L12.79-13.92Q13.94-13.87 15.06-13.87 16.19-13.87 17.33-13.87L17.33-13.87Q18.7-13.87 20.02-13.89 21.34-13.92 22.71-13.92ZM51.1-19.73L51.1-19.73Q51.1-17.6 50.8-15.48L50.8-15.48Q46.63-15.21 42.5-14.61 38.38-14.01 34.25-13.43L34.25-13.43Q34.89-11.67 36.24-10.62 37.6-9.57 39.48-9.57L39.48-9.57Q40.45-9.57 41.61-9.94 42.77-10.3 43.92-10.85 45.07-11.4 46.12-12.04 47.17-12.67 47.92-13.18L47.92-13.18 46.75-2.1Q45.8-1.37 44.69-0.85 43.58-0.34 42.38-0.02 41.18 0.29 39.96 0.44 38.74 0.59 37.57 0.59L37.57 0.59Q35.15 0.59 33.15-0.07 31.15-0.73 29.53-1.92 27.9-3.1 26.68-4.71 25.46-6.32 24.66-8.23 23.85-10.13 23.43-12.26 23.02-14.38 23.02-16.55L23.02-16.55Q23.02-18.82 23.43-21.09 23.85-23.36 24.69-25.46 25.53-27.56 26.82-29.36 28.1-31.15 29.81-32.5 31.52-33.84 33.68-34.59 35.84-35.35 38.45-35.35L38.45-35.35Q40.62-35.35 42.42-34.75 44.21-34.16 45.62-33.09 47.02-32.03 48.06-30.57 49.09-29.1 49.77-27.36 50.44-25.61 50.77-23.67 51.1-21.73 51.1-19.73ZM41.33-20.46L41.33-21Q41.33-21.68 41.18-22.4 41.04-23.12 40.71-23.71 40.38-24.29 39.84-24.67 39.3-25.05 38.5-25.05L38.5-25.05Q37.52-25.05 36.78-24.52 36.03-24 35.5-23.21 34.96-22.41 34.62-21.48 34.27-20.56 34.1-19.78L34.1-19.78 41.33-20.46ZM72.6-34.96L82.12-2.1 70.01-0.54 68.55-6.05 62.98-6.05 61.76-0.54 49.31-1.76 59.03-34.28 72.6-34.96ZM64.01-13.53L67.67-13.53 65.82-22.02 64.01-13.53ZM111.25-23.54L111.25-23.54Q111.25-21.63 110.92-20.08 110.59-18.53 109.88-17.24 109.17-15.94 108.05-14.84 106.93-13.75 105.34-12.74L105.34-12.74 111.15-2.39 100.16-0.24 96.4-10.64 93.38-10.55 92.94-0.39 82.44-0.39Q82.56-5.96 82.67-11.47 82.78-16.99 82.93-22.56L82.93-22.56Q82.98-25.37 83.02-28.13 83.07-30.88 83.22-33.69L83.22-33.69Q84.93-34.33 86.59-34.74 88.25-35.16 89.92-35.39 91.59-35.62 93.32-35.71 95.04-35.79 96.84-35.79L96.84-35.79Q99.63-35.79 102.23-35.02 104.83-34.25 106.83-32.71 108.83-31.18 110.04-28.88 111.25-26.59 111.25-23.54ZM100.31-22.75L100.31-22.75Q100.31-23.78 100.03-24.63 99.75-25.49 99.2-26.11 98.65-26.73 97.83-27.09 97.01-27.44 95.92-27.44L95.92-27.44Q95.43-27.44 94.96-27.38 94.5-27.32 94.06-27.2L94.06-27.2 93.67-18.12 94.26-18.12Q95.31-18.12 96.39-18.38 97.48-18.65 98.34-19.21 99.21-19.78 99.76-20.65 100.31-21.53 100.31-22.75ZM143.23-12.35L143.23-12.35Q143.23-9.59 143.17-6.9 143.11-4.2 142.98-1.46L142.98-1.46 128.92-1.71Q129.65-6.03 130.19-10.34 130.73-14.65 130.73-19.04L130.73-19.04Q130.73-19.36 130.7-20.07 130.68-20.78 130.61-21.67 130.53-22.56 130.4-23.5 130.26-24.44 130.03-25.22 129.8-26 129.47-26.5 129.14-27 128.68-27L128.68-27Q127.85-27 127.27-26.51 126.7-26.03 126.32-25.26 125.94-24.49 125.72-23.54 125.5-22.58 125.39-21.63 125.28-20.68 125.25-19.84 125.21-18.99 125.21-18.46L125.21-18.46Q125.09-14.14 125.01-9.88 124.94-5.62 124.82-1.27L124.82-1.27 112.37-0.73Q112.86-9.35 113.31-17.87 113.76-26.39 114.03-35.01L114.03-35.01 125.55-35.6 125.45-31.69Q126.14-32.52 126.93-33.25 127.72-33.98 128.63-34.51 129.53-35.03 130.54-35.34 131.56-35.64 132.68-35.64L132.68-35.64Q134.76-35.64 136.32-34.96 137.88-34.28 139-33.11 140.13-31.93 140.88-30.33 141.64-28.74 142.1-26.93 142.57-25.12 142.81-23.16 143.06-21.19 143.14-19.29 143.23-17.38 143.23-15.6 143.23-13.82 143.23-12.35ZM176.96-34.62L188.49-35.01 186.73-1.9 173.94-0.73 167.1-18.46 166.03-0.39 155.04-0.39 155.92-35.01 168.12-35.6 176.57-18.02 176.96-34.62ZM228.67-23.49L228.67-23.49Q228.67-21.12 227.96-19.29 227.25-17.46 226.02-16.09 224.78-14.72 223.12-13.77 221.46-12.82 219.57-12.22 217.68-11.62 215.65-11.34 213.63-11.06 211.67-11.04L211.67-11.04 211.67 0.34 200.3 0.34Q200.3-5.25 200.32-10.79 200.35-16.33 200.4-21.97L200.4-21.97Q200.44-24.95 200.42-27.93 200.4-30.91 200.54-33.94L200.54-33.94Q203.67-34.86 206.79-35.33 209.92-35.79 213.24-35.79L213.24-35.79Q215.12-35.79 217-35.49 218.88-35.18 220.6-34.52 222.32-33.86 223.8-32.87 225.27-31.88 226.35-30.52 227.42-29.15 228.04-27.4 228.67-25.66 228.67-23.49ZM217.83-22.66L217.83-22.66Q217.83-24.24 216.86-25.13 215.9-26.03 214.36-26.03L214.36-26.03Q213.85-26.03 213.3-25.94 212.75-25.85 212.26-25.73L212.26-25.73 211.97-18.6Q212.31-18.55 212.63-18.55 212.94-18.55 213.29-18.55L213.29-18.55Q214.16-18.55 214.98-18.85 215.8-19.14 216.44-19.69 217.07-20.24 217.45-20.98 217.83-21.73 217.83-22.66ZM241.51-12.94L251.42-12.94 250.39-2.1 229.84-0.49 230.62-35.35 243.31-35.35 241.51-12.94ZM273.83-34.96L283.35-2.1 271.24-0.54 269.77-6.05 264.21-6.05 262.99-0.54 250.54-1.76 260.25-34.28 273.83-34.96ZM265.23-13.53L268.9-13.53 267.04-22.02 265.23-13.53ZM299.26-33.89L310.98-33.06 299.51-14.31 299.85-0.49 287.3-0.49 287.59-14.21 278.66-32.32 291.11-33.89 295.02-23.34 299.26-33.89Z" opacity="1" transform="matrix(1,0,0,1,0,0)" fill="#f9cc0b" class="wordmark-text-0" data-fill-palette-color="primary" id="text-0"></path></svg></g></svg></g><g transform="matrix(1,0,0,1,2.5,58.63976244903782)"><svg viewBox="0 0 390.52 28.237585200576838" height="28.237585200576838" width="390.52"><g transform="matrix(1,0,0,1,0,0)"><svg width="390.52" viewBox="-1.17 -44.33 825.821428571353 60.51" height="28.237585200576838" data-palette-color="#f9cc0b"><path d="M10.99 0.49L10.99 0.49Q9.38 0.49 8.13-0.29L8.13-0.29Q6.88 0.49 5.82 0.49 4.76 0.49 4.08 0.31 3.39 0.12 2.88-0.2L2.88-0.2Q1.83-0.83 1.83-1.78L1.83-1.78Q1.83-2.27 2.1-2.64L2.1-2.64Q2.64-2.22 3.47-2.22L3.47-2.22Q5.64-2.22 6.47-4.08L6.47-4.08 6.47-16.02Q6.47-17.14 6.01-17.68L6.01-17.68Q5.27-18.58 3.49-19.46L3.49-19.46Q5.15-20.21 5.64-20.8L5.64-20.8Q6.47-21.75 6.47-22.95L6.47-22.95 6.47-33.25Q5.64-35.13 3.47-35.13L3.47-35.13Q2.64-35.13 2.1-34.72L2.1-34.72Q1.83-35.08 1.83-35.56 1.83-36.04 2.11-36.45 2.39-36.87 2.88-37.16L2.88-37.16Q4-37.84 5.46-37.84 6.91-37.84 8.13-37.04L8.13-37.04Q9.4-37.84 10.96-37.84 12.52-37.84 13.79-37.04L13.79-37.04Q15.16-37.84 16.28-37.84 17.41-37.84 18.09-37.66 18.77-37.48 19.29-37.16L19.29-37.16Q20.34-36.52 20.34-35.57L20.34-35.57Q20.34-35.08 20.07-34.72L20.07-34.72Q19.53-35.13 18.63-35.13 17.72-35.13 16.81-34.66 15.89-34.18 15.45-33.23L15.45-33.23 15.45-22.95Q15.45-21.75 15.97-21.17L15.97-21.17Q16.77-20.21 18.43-19.46L18.43-19.46Q16.65-18.58 16.16-18.02L16.16-18.02Q15.45-17.14 15.45-16.02L15.45-16.02 15.45-5.35Q17.07-2.78 19.48-2.78L19.48-2.78Q25.46-2.78 27.17-7.86L27.17-7.86Q27.93-10.11 27.93-11.98 27.93-13.84 27.42-14.48L27.42-14.48Q27.98-14.94 28.58-14.94 29.17-14.94 29.69-14.7 30.2-14.45 30.62-13.96L30.62-13.96Q31.47-12.96 31.47-11.6 31.47-10.23 31.25-9.5L31.25-9.5Q32.37-8.57 32.37-6.88 32.37-5.2 31.42-4.15L31.42-4.15Q32.23-3.13 32.23-2.29 32.23-1.46 31.99-0.87 31.76-0.27 31.35 0.2L31.35 0.2Q30.42 1.15 29.13 1.15L29.13 1.15Q28.49 1.15 27.95 0.88L27.95 0.88Q28.05 0.34 28.05-0.2L28.05-0.2Q28.05-1.32 27.03-1.32L27.03-1.32Q26.27-1.32 24.93-0.71L24.93-0.71Q22.34 0.49 19.03 0.49 15.72 0.49 13.87-0.37L13.87-0.37Q12.6 0.49 10.99 0.49ZM8.81-9.64L8.81-6.47Q10.03-6.93 10.16-9.67L10.16-9.67Q10.3-12.4 10.3-17.24 10.3-22.07 10.29-23.67 10.28-25.27 10.25-26.25L10.25-26.25Q10.18-29.13 9.7-29.72 9.23-30.32 8.81-30.52L8.81-30.52Q8.81-22.02 8.52-20.85L8.52-20.85Q8.18-19.87 6.86-19.46L6.86-19.46Q8.33-18.95 8.52-18.21L8.52-18.21Q8.81-17.04 8.81-9.64L8.81-9.64ZM73.74-7.37L73.74-7.37Q74.27-8.4 75.71-8.4L75.71-8.4Q76.69-8.4 77.23-7.59L77.23-7.59Q77.67-6.96 77.67-6.04 77.67-5.13 77.2-4.2 76.74-3.27 75.93-2.51 75.13-1.76 74.09-1.17 73.05-0.59 71.88-0.2L71.88-0.2Q69.46 0.61 66.85 0.61 64.24 0.61 61.96-0.26 59.67-1.12 58.04-2.69L58.04-2.69Q54.84-5.76 54.13-11.13L54.13-11.13Q53.96-12.33 53.57-12.84L53.57-12.84Q52.84-13.75 51.15-14.58L51.15-14.58Q53.28-15.53 53.86-17.63L53.86-17.63Q54.03-18.21 54.13-18.8L54.13-18.8Q54.74-23.1 58.48-26.12L58.48-26.12Q62.09-29.05 66.56-29.05L66.56-29.05Q71.2-29.05 74.59-25.78L74.59-25.78Q78.11-22.41 78.11-17.5L78.11-17.5Q78.11-17.33 78.09-17.16 78.08-16.99 78.11-16.85L78.11-16.85Q78.15-16.53 78.5-16.48L78.5-16.48Q78.94-15.92 78.94-15.28L78.94-15.28Q78.94-13.82 77.37-13.55L77.37-13.55Q76.98-13.48 76.15-13.35L76.15-13.35 62.38-11.16 62.38-8.81Q62.38-5.98 64.09-4.32L64.09-4.32Q65.7-2.73 68.17-2.73L68.17-2.73Q70.78-2.73 72.37-3.81L72.37-3.81Q73.86-4.83 73.86-6.49L73.86-6.49Q73.86-6.88 73.74-7.37ZM62.38-14.11L69.46-15.26 69.46-22.09Q69.46-23.71 68.83-24.46L68.83-24.46Q67.71-25.76 66.61-25.76 65.51-25.76 64.78-25.43 64.04-25.1 63.51-24.39L63.51-24.39Q62.38-22.9 62.38-19.75L62.38-19.75 62.38-14.11ZM71.56-15.63L73.08-15.87 73.08-16.63Q73.08-21.17 72.32-22.12L72.32-22.12Q71.98-22.53 71.56-22.73L71.56-22.73 71.56-15.63ZM58.4-6.47L58.4-6.47Q58.75-6.74 58.75-7.08L58.75-7.08Q58.75-7.62 58.53-8.45L58.53-8.45Q57.53-12.28 57.53-13.78 57.53-15.28 57.62-16.13 57.72-16.97 57.89-17.82L57.89-17.82Q58.18-19.48 58.53-20.75L58.53-20.75Q58.75-21.58 58.75-21.88L58.75-21.88Q58.75-22.46 58.4-22.73L58.4-22.73Q57.38-21.51 56.84-19.46 56.3-17.41 55.96-15.84L55.96-15.84Q55.84-15.19 54.52-14.58L54.52-14.58Q55.84-13.96 55.96-13.35L55.96-13.35Q56.87-9.23 57.45-8.11 58.04-6.98 58.4-6.47ZM116.39-2.32L116.39-2.32Q114.17 0.61 109.73 0.61L109.73 0.61Q104.31 0.61 101.6-2.64L101.6-2.64Q100.43-4.03 99.99-5.74L99.99-5.74Q99.74-6.76 99.13-7.31 98.52-7.86 97.62-8.3L97.62-8.3Q99.38-9.11 100.13-11.33L100.13-11.33Q100.94-13.67 102.82-14.72L102.82-14.72Q104.85-15.82 107.29-15.88 109.73-15.94 110.9-16.04 112.07-16.14 112.97-16.36L112.97-16.36Q114.66-16.75 115.61-17.8L115.61-17.8 115.61-21.46Q115.61-23.88 114.62-25 113.63-26.12 111.62-26.12 109.61-26.12 108.64-25.38 107.68-24.63 107.68-23.39L107.68-23.39Q107.68-21.48 109.63-21.53L109.63-21.53Q109.24-19.63 107.58-19.63L107.58-19.63Q107.09-19.63 106.63-19.8L106.63-19.8 106.63-19.73Q106.63-19.09 107.21-18.92L107.21-18.92Q106.6-17.99 105.16-18.02 103.72-18.04 102.92-19.56L102.92-19.56Q102.55-19.46 102.07-19.46 101.6-19.46 101.02-19.78 100.45-20.09 100.11-20.65L100.11-20.65Q101.33-21.39 101.6-22.92L101.6-22.92Q101.89-24.8 104.6-26.73L104.6-26.73Q107.87-29.05 112.95-29.05L112.95-29.05Q121.37-29.05 123.23-23.88L123.23-23.88Q123.84-22.14 123.84-19.78L123.84-19.78 123.84-17.8Q123.84-16.6 124.44-15.84 125.04-15.09 126.48-14.6L126.48-14.6Q124.94-13.89 124.5-13.33L124.5-13.33Q123.84-12.48 123.84-11.38L123.84-11.38 123.84-4.05Q124.55-2.22 125.87-2.22L125.87-2.22Q126.7-2.22 127.23-2.64L127.23-2.64Q127.57-2.17 127.57-1.48 127.57-0.78 126.88-0.15 126.18 0.49 124.79 0.49 123.4 0.49 122.2-0.29L122.2-0.29Q121.15 0.49 120.34 0.49 119.52 0.49 118.92 0.33 118.32 0.17 117.81-0.17L117.81-0.17Q116.66-0.93 116.39-2.32ZM117.93-22.73L117.93-6.47Q119.35-7.03 119.42-11.87L119.42-11.87Q119.42-12.89 119.42-14.21 119.42-15.53 119.41-16.47 119.4-17.41 119.37-18.26L119.37-18.26Q119.27-21.34 118.81-21.94 118.35-22.53 117.93-22.73L117.93-22.73ZM108.92-8.2L108.92-8.2Q108.92-7.18 109.14-6.2 109.36-5.22 109.8-4.49L109.8-4.49Q110.78-2.95 112.56-2.95L112.56-2.95Q113.9-2.95 114.78-4.05L114.78-4.05Q115.61-5.13 115.61-6.81L115.61-6.81 115.61-14.77Q114.05-13.87 111.61-13.53L111.61-13.53Q108.92-13.11 108.92-8.2ZM105.26-2.71L105.26-2.71Q105.5-2.88 105.5-3.15L105.5-3.15Q105.5-3.52 105.16-4.17L105.16-4.17Q103.94-6.42 103.94-7.86 103.94-9.3 104.05-9.94 104.16-10.57 104.34-11.02 104.53-11.47 104.76-11.82 104.99-12.16 105.16-12.43L105.16-12.43Q105.48-12.99 105.48-13.2 105.48-13.4 105.26-13.55L105.26-13.55Q104.26-13.09 103.8-12.45L103.8-12.45Q102.97-11.33 102.57-9.55L102.57-9.55Q102.48-9.03 100.87-8.3L100.87-8.3Q102.43-7.59 102.57-7.06L102.57-7.06Q103.4-4.15 105.26-2.71ZM152.34-0.29L152.34-0.29Q151.21 0.49 149.77 0.49 148.33 0.49 147.69-0.18 147.04-0.85 147.04-1.46L147.04-1.46Q147.04-2.27 147.31-2.64L147.31-2.64Q147.84-2.22 148.67-2.22L148.67-2.22Q150.24-2.22 150.7-3.74L150.7-3.74 150.7-11.13Q150.7-12.26 150.26-12.79L150.26-12.79Q149.48-13.75 147.72-14.6L147.72-14.6Q150.7-15.97 150.7-18.8L150.7-18.8 150.7-21.36Q150.7-23.44 149.28-23.61L149.28-23.61Q148.87-23.66 148.23-23.66 147.6-23.66 147.06-23.24L147.06-23.24Q146.72-23.71 146.72-24.21 146.72-24.71 146.98-25.33 147.23-25.95 147.77-26.51L147.77-26.51Q149.04-27.83 150.74-27.83 152.43-27.83 153.56-27.29L153.56-27.29Q154.9-28.81 156.44-28.81L156.44-28.81Q158.83-28.81 158.83-26.17L158.83-26.17 158.83-22.83Q161.27-28.83 166.59-28.83L166.59-28.83Q168.99-28.83 170.48-27.37L170.48-27.37Q172.01-25.88 172.01-23.24L172.01-23.24 172.01-22.9Q172.01-22.73 171.96-22.2 171.92-21.68 172-21.14 172.09-20.61 172.28-20.26L172.28-20.26Q172.55-19.75 173.28-19.46L173.28-19.46Q173.11-18.8 172.49-18.27 171.87-17.75 171.11-17.75L171.11-17.75 170.65-17.75Q169.69-16.55 167.99-16.06L167.99-16.06Q167.5-15.92 166.92-15.92 166.35-15.92 165.92-16.17 165.5-16.43 165.45-16.72L165.45-16.72Q165.91-16.94 165.91-17.6L165.91-17.6 165.91-17.72Q165.71-17.68 165.57-17.68L165.57-17.68 165.32-17.68Q164.52-17.68 163.87-18.29 163.22-18.9 163.03-19.82L163.03-19.82Q164.35-19.78 165.32-20.8L165.32-20.8Q166.2-21.7 166.2-22.66L166.2-22.66Q166.2-24.9 164.25-24.9L164.25-24.9Q162.57-24.9 160.86-22.22L160.86-22.22Q159.25-19.75 158.83-17.11L158.83-17.11 158.83-3.91Q159.1-3.05 159.66-2.64 160.22-2.22 161.2-2.22 162.17-2.22 162.71-2.64L162.71-2.64Q162.98-2.27 162.98-1.56 162.98-0.85 162.33-0.18 161.69 0.49 160.16 0.49 158.63 0.49 157.24-0.34L157.24-0.34Q156.27 0.49 154.88 0.49 153.48 0.49 152.34-0.29ZM154.45-11.88Q154.46-12.7 154.47-13.26 154.48-13.82 154.48-14.16L154.48-14.16 154.48-14.82Q154.48-15.19 154.47-15.76 154.46-16.33 154.45-17.05 154.44-17.77 154.41-18.46L154.41-18.46Q154.26-21 153.86-21.72 153.46-22.44 153.04-22.71L153.04-22.71 153.04-21.12Q153.04-17.02 152.86-16.3 152.68-15.58 152.27-15.22 151.87-14.87 151.09-14.6L151.09-14.6Q152.56-14.09 152.75-13.35L152.75-13.35Q153.04-12.18 153.04-8.08L153.04-8.08 153.04-6.49Q154.17-7.23 154.31-9.47L154.31-9.47Q154.44-11.06 154.45-11.88ZM196.48-0.29L196.48-0.29Q195.36 0.49 193.92 0.49 192.48 0.49 191.83-0.18 191.18-0.85 191.18-1.46L191.18-1.46Q191.18-2.27 191.45-2.64L191.45-2.64Q191.99-2.22 192.82-2.22L192.82-2.22Q194.38-2.22 194.85-3.74L194.85-3.74 194.85-11.33Q194.85-12.4 194.38-12.89L194.38-12.89Q193.67-13.7 191.87-14.58L191.87-14.58Q193.58-15.36 194.04-15.82L194.04-15.82Q194.85-16.63 194.85-17.8L194.85-17.8 194.85-21.36Q194.85-23.44 193.43-23.61L193.43-23.61Q193.02-23.66 192.38-23.66 191.75-23.66 191.21-23.24L191.21-23.24Q190.87-23.71 190.87-24.21 190.87-24.71 191.12-25.33 191.38-25.95 191.89-26.51L191.89-26.51Q193.19-27.83 194.88-27.83 196.58-27.83 197.7-27.29L197.7-27.29Q199.05-28.81 200.44-28.81 201.83-28.81 202.37-28.16 202.9-27.51 202.9-26.17L202.9-26.17 202.9-23.88Q204.17-26.15 206.37-27.48 208.57-28.81 211.03-28.81 213.5-28.81 215-28.16 216.5-27.51 217.48-26.32L217.48-26.32Q219.38-23.95 219.38-19.43L219.38-19.43 219.38-17.82Q219.38-16.65 219.9-16.14L219.9-16.14Q220.65-15.36 222.36-14.58L222.36-14.58Q220.53-13.67 220.07-13.21L220.07-13.21Q219.38-12.45 219.38-11.38L219.38-11.38 219.38-3.74Q219.85-2.22 221.41-2.22L221.41-2.22Q222.24-2.22 222.78-2.64L222.78-2.64Q223.04-2.27 223.04-1.56 223.04-0.85 222.4-0.18 221.75 0.49 220.41 0.49 219.07 0.49 217.97-0.27L217.97-0.27Q216.99 0.49 215.68 0.49 214.38 0.49 213.35-0.24L213.35-0.24Q212.28 0.49 211.06 0.49 209.84 0.49 209.13-0.12 208.42-0.73 208.42-1.88L208.42-1.88Q208.42-2.42 208.79-2.73L208.79-2.73Q209.35-2.29 209.91-2.29L209.91-2.29Q210.98-2.29 211.45-3.49L211.45-3.49 211.45-18.04Q211.45-22.78 209.13-23.54L209.13-23.54Q208.37-23.78 207.49-23.78 206.61-23.78 205.86-23.43 205.1-23.07 204.49-22.44L204.49-22.44Q203.15-21.02 202.9-19.07L202.9-19.07 202.9-3.49Q203.37-2.29 204.44-2.29L204.44-2.29Q205-2.29 205.56-2.73L205.56-2.73Q205.93-2.42 205.93-1.57 205.93-0.73 205.22-0.12 204.51 0.49 203.35 0.49 202.2 0.49 201.24-0.24L201.24-0.24Q200.32 0.49 198.97 0.49 197.63 0.49 196.48-0.29ZM213.79-15.77L213.79-6.47Q215.01-6.93 215.13-9.67L215.13-9.67Q215.28-12.4 215.28-14.82 215.28-17.24 215.09-18.81 214.89-20.39 214.52-21.28 214.16-22.17 213.66-22.57 213.16-22.97 212.57-23.27L212.57-23.27Q213.5-21.07 213.65-19.26 213.79-17.46 213.79-15.77L213.79-15.77ZM198.59-11.87Q198.61-12.67 198.62-13.22 198.63-13.77 198.63-14.11 198.63-14.45 198.63-14.81 198.63-15.16 198.62-15.75 198.61-16.33 198.59-17.04 198.58-17.75 198.53-18.43L198.53-18.43Q198.46-20.12 198.31-20.75L198.31-20.75Q198.02-22.17 197.19-22.71L197.19-22.71 197.19-21.12Q197.19-17.02 197.01-16.3 196.82-15.58 196.42-15.21 196.02-14.84 195.24-14.58L195.24-14.58Q196.7-14.06 196.9-13.35L196.9-13.35Q197.19-12.18 197.19-8.08L197.19-8.08 197.19-6.49Q198.31-7.23 198.48-9.47L198.48-9.47Q198.58-11.06 198.59-11.87ZM249.86-32.3L249.86-32.3Q248.61-32.3 247.45-32.96 246.29-33.62 245.68-34.72L245.68-34.72Q245.02-35.84 243.92-36.43L243.92-36.43Q243.58-36.6 243.14-36.79L243.14-36.79 243.97-37.3Q245.14-38.04 245.71-39.09 246.27-40.14 247.4-40.73 248.54-41.33 249.86-41.33L249.86-41.33Q252.59-41.33 253.81-39.04L253.81-39.04Q254.64-37.52 256.38-36.79L256.38-36.79Q256.01-36.57 255.66-36.4 255.3-36.23 254.98-36.01L254.98-36.01Q254.28-35.52 253.73-34.57 253.18-33.62 252.14-32.96 251.1-32.3 249.86-32.3ZM248.56-35.29Q248.42-35.55 248.33-35.9 248.25-36.25 248.25-37.16 248.25-38.06 249.17-39.45L249.17-39.45Q248.27-39.45 247.9-39.12 247.54-38.79 247.35-38.56 247.17-38.33 247.04-38.1 246.9-37.87 246.71-37.6L246.71-37.6Q246.24-36.94 245.95-36.79L245.95-36.79Q246.34-36.57 246.67-36.1 247-35.62 247.44-35.11L247.44-35.11Q248.1-34.3 249.17-34.3L249.17-34.3Q249.03-34.57 248.87-34.8 248.71-35.03 248.56-35.29ZM247.42-0.29L247.42-0.29Q246.29 0.49 244.86 0.49 243.44 0.49 242.74-0.15 242.04-0.78 242.04-1.37L242.04-1.37Q242.04-2.17 242.39-2.64L242.39-2.64Q242.92-2.22 243.97-2.22 245.02-2.22 245.78-3.59L245.78-3.59 245.78-11.38Q245.78-12.45 245.34-12.94L245.34-12.94Q244.63-13.67 242.8-14.58L242.8-14.58Q244.51-15.36 244.97-15.82L244.97-15.82Q245.78-16.63 245.78-17.8L245.78-17.8 245.78-21.36Q245.78-23.44 244.36-23.61L244.36-23.61Q243.95-23.66 243.31-23.66 242.68-23.66 242.14-23.24L242.14-23.24Q241.8-23.71 241.8-24.21 241.8-24.71 242.06-25.33 242.31-25.95 242.85-26.51L242.85-26.51Q244.12-27.83 245.78-27.83 247.44-27.83 248.78-27.25L248.78-27.25Q249.98-28.81 251.52-28.81L251.52-28.81Q254.03-28.81 254.03-26.17L254.03-26.17 254.03-17.8Q254.03-16.63 254.54-16.11L254.54-16.11Q255.3-15.36 257.01-14.58L257.01-14.58Q255.18-13.67 254.72-13.21L254.72-13.21Q254.03-12.45 254.03-11.38L254.03-11.38 254.03-3.52Q254.84-2.22 255.86-2.22 256.89-2.22 257.43-2.64L257.43-2.64Q257.77-2.17 257.77-1.48 257.77-0.78 257.07-0.15 256.38 0.49 254.98 0.49 253.59 0.49 252.4-0.29L252.4-0.29Q251.39 0.49 249.98 0.49 248.56 0.49 247.42-0.29ZM249.53-11.87Q249.54-12.7 249.55-13.26 249.56-13.82 249.56-14.16L249.56-14.16 249.56-14.82Q249.56-15.19 249.55-15.77 249.54-16.36 249.53-17.07 249.51-17.77 249.49-18.46L249.49-18.46Q249.39-20.14 249.25-20.78L249.25-20.78Q248.95-22.19 248.12-22.73L248.12-22.73 248.12-21.14Q248.12-17.02 247.94-16.3 247.76-15.58 247.35-15.22 246.95-14.87 246.17-14.6L246.17-14.6Q247.64-14.09 247.83-13.35L247.83-13.35Q248.12-12.18 248.12-8.06L248.12-8.06 248.12-6.47Q249.25-7.2 249.39-9.47L249.39-9.47Q249.51-11.04 249.53-11.87ZM282.16-0.29L282.16-0.29Q281.04 0.49 279.6 0.49 278.16 0.49 277.51-0.18 276.86-0.85 276.86-1.46L276.86-1.46Q276.86-2.27 277.13-2.64L277.13-2.64Q277.67-2.22 278.5-2.22L278.5-2.22Q280.06-2.22 280.53-3.74L280.53-3.74 280.53-11.33Q280.53-12.4 280.06-12.89L280.06-12.89Q279.35-13.7 277.55-14.58L277.55-14.58Q279.26-15.36 279.72-15.82L279.72-15.82Q280.53-16.63 280.53-17.8L280.53-17.8 280.53-21.36Q280.53-23.44 279.11-23.61L279.11-23.61Q278.7-23.66 278.06-23.66 277.43-23.66 276.89-23.24L276.89-23.24Q276.55-23.71 276.55-24.21 276.55-24.71 276.8-25.33 277.06-25.95 277.57-26.51L277.57-26.51Q278.87-27.83 280.56-27.83 282.26-27.83 283.38-27.29L283.38-27.29Q284.73-28.81 286.12-28.81 287.51-28.81 288.05-28.16 288.58-27.51 288.58-26.17L288.58-26.17 288.58-23.88Q289.85-26.15 292.05-27.48 294.25-28.81 296.71-28.81 299.18-28.81 300.68-28.16 302.18-27.51 303.16-26.32L303.16-26.32Q305.06-23.95 305.06-19.43L305.06-19.43 305.06-17.82Q305.06-16.65 305.58-16.14L305.58-16.14Q306.33-15.36 308.04-14.58L308.04-14.58Q306.21-13.67 305.75-13.21L305.75-13.21Q305.06-12.45 305.06-11.38L305.06-11.38 305.06-3.74Q305.53-2.22 307.09-2.22L307.09-2.22Q307.92-2.22 308.46-2.64L308.46-2.64Q308.72-2.27 308.72-1.56 308.72-0.85 308.08-0.18 307.43 0.49 306.09 0.49 304.75 0.49 303.65-0.27L303.65-0.27Q302.67 0.49 301.36 0.49 300.06 0.49 299.03-0.24L299.03-0.24Q297.96 0.49 296.74 0.49 295.52 0.49 294.81-0.12 294.1-0.73 294.1-1.88L294.1-1.88Q294.1-2.42 294.47-2.73L294.47-2.73Q295.03-2.29 295.59-2.29L295.59-2.29Q296.66-2.29 297.13-3.49L297.13-3.49 297.13-18.04Q297.13-22.78 294.81-23.54L294.81-23.54Q294.05-23.78 293.17-23.78 292.29-23.78 291.54-23.43 290.78-23.07 290.17-22.44L290.17-22.44Q288.83-21.02 288.58-19.07L288.58-19.07 288.58-3.49Q289.05-2.29 290.12-2.29L290.12-2.29Q290.68-2.29 291.24-2.73L291.24-2.73Q291.61-2.42 291.61-1.57 291.61-0.73 290.9-0.12 290.19 0.49 289.03 0.49 287.88 0.49 286.92-0.24L286.92-0.24Q286 0.49 284.65 0.49 283.31 0.49 282.16-0.29ZM299.47-15.77L299.47-6.47Q300.69-6.93 300.81-9.67L300.81-9.67Q300.96-12.4 300.96-14.82 300.96-17.24 300.77-18.81 300.57-20.39 300.2-21.28 299.84-22.17 299.34-22.57 298.84-22.97 298.25-23.27L298.25-23.27Q299.18-21.07 299.33-19.26 299.47-17.46 299.47-15.77L299.47-15.77ZM284.27-11.87Q284.29-12.67 284.3-13.22 284.31-13.77 284.31-14.11 284.31-14.45 284.31-14.81 284.31-15.16 284.3-15.75 284.29-16.33 284.27-17.04 284.26-17.75 284.21-18.43L284.21-18.43Q284.14-20.12 283.99-20.75L283.99-20.75Q283.7-22.17 282.87-22.71L282.87-22.71 282.87-21.12Q282.87-17.02 282.69-16.3 282.5-15.58 282.1-15.21 281.7-14.84 280.92-14.58L280.92-14.58Q282.38-14.06 282.58-13.35L282.58-13.35Q282.87-12.18 282.87-8.08L282.87-8.08 282.87-6.49Q283.99-7.23 284.16-9.47L284.16-9.47Q284.26-11.06 284.27-11.87ZM331.65 0.95L331.65 0.95Q329.9-0.66 329.9-3.05L329.9-3.05Q329.9-6.62 334.12-8.91L334.12-8.91Q331.36-10.84 330.09-15.01L330.09-15.01Q329.68-16.31 329.26-16.77L329.26-16.77Q328.65-17.5 327.16-18.24L327.16-18.24Q328.38-18.8 329.03-19.68 329.68-20.56 330.15-21.97 330.63-23.39 331.5-24.68 332.36-25.98 333.73-26.95L333.73-26.95Q336.73-29.05 341.47-29.05L341.47-29.05Q342.98-29.05 344.62-28.74L344.62-28.74Q344.96-31.4 346.99-33.25L346.99-33.25Q348.99-35.13 351.67-35.13L351.67-35.13Q354.82-35.13 356.97-33.5L356.97-33.5Q358.14-32.62 359.32-32.84L359.32-32.84Q359.41-30.88 357.8-30.32L357.8-30.32Q357.53-27.03 354.95-27.03L354.95-27.03Q353.92-27.03 353.7-27.17L353.7-27.17Q354.07-27.49 354.07-27.99 354.07-28.49 353.65-28.86L353.65-28.86Q353.14-27.91 351.36-27.91L351.36-27.91Q350.38-27.91 349.82-28.83L349.82-28.83Q350.75-29.13 351.28-29.72 351.82-30.32 351.82-30.83L351.82-30.83Q351.82-32.18 350.4-32.18L350.4-32.18Q347.67-32.18 347.21-27.93L347.21-27.93Q351.65-26.03 352.87-21.95L352.87-21.95Q353.68-19.19 355.85-18.24L355.85-18.24Q353.95-17.29 353.33-16.11L353.33-16.11Q353.09-15.65 352.9-15.01L352.9-15.01Q351.58-10.86 348.77-8.9 345.96-6.93 341.54-6.93L341.54-6.93Q338.74-6.93 336.66-7.62L336.66-7.62Q335.85-7.1 335.85-6.48 335.85-5.86 336.1-5.43 336.34-5 336.98-4.66L336.98-4.66Q338.22-4 341.71-3.49L341.71-3.49Q343.3-3.17 344.99-5.54L344.99-5.54Q345.08-4.3 345.55-3.67 346.01-3.05 346.57-2.98L346.57-2.98Q353.31-1.98 355.29 1.42L355.29 1.42Q355.97 2.56 355.97 4.36 355.97 6.15 354.82 7.85 353.68 9.55 351.72 10.74L351.72 10.74Q347.67 13.18 341.76 13.18L341.76 13.18Q334.83 13.18 331.17 10.91L331.17 10.91Q328.02 8.94 328.02 5.86L328.02 5.86Q328.02 3.81 330.09 1.98L330.09 1.98Q330.78 1.39 331.65 0.95ZM339.17-11.38Q339.71-10.62 340.25-10.41 340.79-10.21 341.51-10.21 342.23-10.21 342.76-10.41 343.3-10.62 343.67-11.13L343.67-11.13Q344.37-12.13 344.37-14.5L344.37-14.5 344.37-21.26Q344.37-23.63 343.84-24.39 343.3-25.15 342.76-25.35 342.23-25.56 341.51-25.56 340.79-25.56 340.25-25.35 339.71-25.15 339.37-24.66L339.37-24.66Q338.64-23.63 338.64-21.26L338.64-21.26 338.64-14.5Q338.64-12.13 339.17-11.38ZM346.74-24.71L346.74-11.55Q347.87-11.94 348.04-13.96L348.04-13.96Q348.21-15.87 348.21-18.24L348.21-18.24Q348.21-21.9 348.01-22.92L348.01-22.92Q347.72-24.29 346.74-24.71L346.74-24.71ZM334.02-11.55L334.02-11.55Q334.51-11.91 334.51-12.4L334.51-12.4Q334.51-13.04 334.34-13.62L334.34-13.62Q333.68-15.87 333.68-18.24L333.68-18.24Q333.68-20.58 334.34-22.83L334.34-22.83Q334.51-23.41 334.51-23.75L334.51-23.75 334.51-24.34Q334.51-24.56 334.32-24.71L334.32-24.71Q333.32-23.49 332.86-21.92 332.41-20.36 332.14-19.17L332.14-19.17Q332.05-18.8 330.78-18.24L330.78-18.24Q332.07-17.6 332.14-17.29L332.14-17.29 332.63-15.23Q333.27-12.65 334.02-11.55ZM332.78-2.86L332.78-2.86Q332.56-2.64 332.56-2.22L332.56-2.22Q332.66 0.42 340.08 1.76L340.08 1.76Q340.93 1.95 341.3 3.61L341.3 3.61Q341.42 3.08 342.26 2.72 343.11 2.37 343.4 2.39L343.4 2.39Q347.08 2.83 348.38 3.22L348.38 3.22Q350.67 3.93 351.72 5.32L351.72 5.32Q352.02 4.98 352.02 4.44 352.02 3.91 351.48 3.36 350.94 2.81 349.72 2.39L349.72 2.39Q347.62 1.64 344.03 1.22 340.44 0.81 338.99 0.49 337.54 0.17 336.32-0.29L336.32-0.29Q333.66-1.34 332.78-2.86ZM334.1 2.51L334.1 2.51Q332.36 3.27 332.36 5.35L332.36 5.35Q332.36 7.01 334.88 8.35L334.88 8.35Q337.69 9.86 342.13 9.86L342.13 9.86Q347.6 9.86 349.23 7.98L349.23 7.98Q349.7 7.47 349.7 6.9 349.7 6.32 349.15 5.88 348.6 5.44 347.72 5.18L347.72 5.18Q346.43 4.74 343.64 4.42L343.64 4.42Q342.3 4.27 340.32 6.4L340.32 6.4Q340.32 5.03 339.87 4.42 339.42 3.81 338.98 3.76L338.98 3.76Q336.15 3.39 334.1 2.51ZM409.13-0.17L409.13-0.17Q408.23 0.49 407.07 0.49 405.91 0.49 405.21-0.11 404.52-0.71 404.52-1.49 404.52-2.27 404.76-2.64L404.76-2.64Q405.47-2.22 407.01-2.22L407.01-2.22Q407.62-2.22 408.35-2.84 409.08-3.47 409.52-4.57L409.52-4.57 409.52-16.02Q409.52-17.16 409.03-17.72L409.03-17.72Q408.3-18.6 406.54-19.46L406.54-19.46Q408.33-20.31 408.79-20.87L408.79-20.87Q409.52-21.8 409.52-22.95L409.52-22.95 409.55-33.59Q408.96-35.13 406.96-35.13L406.96-35.13Q405.93-35.13 405.45-34.72L405.45-34.72Q405.2-35.03 405.2-35.55 405.2-36.06 405.42-36.47 405.64-36.89 406.03-37.21L406.03-37.21Q406.86-37.84 408.25-37.84 409.64-37.84 410.55-37.04L410.55-37.04Q411.35-37.84 412.43-37.84 413.5-37.84 414.26-36.94L414.26-36.94Q415.21-37.84 415.94-37.84 416.68-37.84 417.07-37.72 417.46-37.6 417.85-37.26L417.85-37.26Q418.63-36.65 419.48-34.79L419.48-34.79 428.83-15.38 436.55-34.4 437.23-35.99Q437.84-37.33 438.38-37.59 438.92-37.84 439.64-37.84 440.36-37.84 441.11-37.3L441.11-37.3Q442.04-37.84 443.54-37.84 445.04-37.84 446.14-37.04L446.14-37.04Q447.12-37.84 448.18-37.84 449.24-37.84 449.84-37.67 450.44-37.5 450.88-37.21L450.88-37.21Q451.81-36.55 451.81-35.57L451.81-35.57Q451.81-35.08 451.54-34.72L451.54-34.72Q451-35.13 450.17-35.13L450.17-35.13Q448.32-35.13 447.66-33.4L447.66-33.4 447.66-22.95Q447.66-21.75 448.17-21.17L448.17-21.17Q448.98-20.21 450.64-19.46L450.64-19.46Q448.85-18.58 448.37-18.02L448.37-18.02Q447.66-17.14 447.66-16.02L447.66-16.02 447.66-4.08Q448.49-2.22 450.66-2.22L450.66-2.22Q451.49-2.22 452.03-2.64L452.03-2.64Q452.3-2.27 452.3-1.79 452.3-1.32 452.02-0.9 451.73-0.49 451.25-0.2L451.25-0.2Q450.12 0.49 448.68 0.49 447.24 0.49 446-0.29L446-0.29Q444.85 0.49 443.38 0.49L443.38 0.49Q441.82 0.49 440.63-0.29L440.63-0.29Q439.38 0.49 438.32 0.49 437.26 0.49 436.57 0.31 435.89 0.12 435.38-0.2L435.38-0.2Q434.33-0.83 434.33-1.78L434.33-1.78Q434.33-2.27 434.6-2.64L434.6-2.64Q435.13-2.22 435.96-2.22L435.96-2.22Q438.14-2.22 438.97-4.08L438.97-4.08 438.97-30.76 429.44-7.18 428.39-4.79Q427.64-3.08 427.33-2.86 427.03-2.64 426.83-2.64L426.83-2.64Q426.22-2.64 425.98-2.76L425.98-2.76 412.94-28.47 412.94-4.59Q413.4-3.47 414.21-2.84 415.02-2.22 416.02-2.22 417.02-2.22 417.73-2.64L417.73-2.64Q417.99-2.2 417.99-1.43 417.99-0.66 417.24-0.09 416.48 0.49 415.28 0.49 414.09 0.49 413.09-0.12L413.09-0.12Q412.21 0.49 411.07 0.49 409.94 0.49 409.13-0.17ZM424.83-13.65L416.38-30.54Q416.14-30.18 416.14-29.49L416.14-29.49Q416.14-27.51 417.8-24.24L417.8-24.24 426.69-6.49Q426.86-6.71 426.86-7.42L426.86-7.42Q426.86-9.55 424.83-13.65L424.83-13.65ZM441.31-30.52L441.31-6.47Q442.53-6.93 442.65-9.67L442.65-9.67Q442.8-12.4 442.8-17.24 442.8-22.07 442.79-23.67 442.77-25.27 442.75-26.25L442.75-26.25Q442.68-29.13 442.2-29.72 441.72-30.32 441.31-30.52L441.31-30.52ZM412.62-5.86L412.6-6.15Q412.6-5.96 412.62-5.86L412.62-5.86ZM409.84-5.86L409.86-6.15Q409.84-6.05 409.84-5.86L409.84-5.86ZM490.46-2.32L490.46-2.32Q488.24 0.61 483.8 0.61L483.8 0.61Q478.38 0.61 475.67-2.64L475.67-2.64Q474.49-4.03 474.05-5.74L474.05-5.74Q473.81-6.76 473.2-7.31 472.59-7.86 471.69-8.3L471.69-8.3Q473.44-9.11 474.2-11.33L474.2-11.33Q475.01-13.67 476.89-14.72L476.89-14.72Q478.91-15.82 481.35-15.88 483.8-15.94 484.97-16.04 486.14-16.14 487.04-16.36L487.04-16.36Q488.73-16.75 489.68-17.8L489.68-17.8 489.68-21.46Q489.68-23.88 488.69-25 487.7-26.12 485.69-26.12 483.67-26.12 482.71-25.38 481.74-24.63 481.74-23.39L481.74-23.39Q481.74-21.48 483.7-21.53L483.7-21.53Q483.31-19.63 481.65-19.63L481.65-19.63Q481.16-19.63 480.7-19.8L480.7-19.8 480.7-19.73Q480.7-19.09 481.28-18.92L481.28-18.92Q480.67-17.99 479.23-18.02 477.79-18.04 476.98-19.56L476.98-19.56Q476.62-19.46 476.14-19.46 475.67-19.46 475.09-19.78 474.52-20.09 474.18-20.65L474.18-20.65Q475.4-21.39 475.67-22.92L475.67-22.92Q475.96-24.8 478.67-26.73L478.67-26.73Q481.94-29.05 487.02-29.05L487.02-29.05Q495.44-29.05 497.3-23.88L497.3-23.88Q497.91-22.14 497.91-19.78L497.91-19.78 497.91-17.8Q497.91-16.6 498.51-15.84 499.1-15.09 500.54-14.6L500.54-14.6Q499.01-13.89 498.57-13.33L498.57-13.33Q497.91-12.48 497.91-11.38L497.91-11.38 497.91-4.05Q498.61-2.22 499.93-2.22L499.93-2.22Q500.76-2.22 501.3-2.64L501.3-2.64Q501.64-2.17 501.64-1.48 501.64-0.78 500.95-0.15 500.25 0.49 498.86 0.49 497.47 0.49 496.27-0.29L496.27-0.29Q495.22 0.49 494.4 0.49 493.59 0.49 492.99 0.33 492.39 0.17 491.88-0.17L491.88-0.17Q490.73-0.93 490.46-2.32ZM492-22.73L492-6.47Q493.41-7.03 493.49-11.87L493.49-11.87Q493.49-12.89 493.49-14.21 493.49-15.53 493.48-16.47 493.46-17.41 493.44-18.26L493.44-18.26Q493.34-21.34 492.88-21.94 492.41-22.53 492-22.73L492-22.73ZM482.99-8.2L482.99-8.2Q482.99-7.18 483.21-6.2 483.43-5.22 483.87-4.49L483.87-4.49Q484.85-2.95 486.63-2.95L486.63-2.95Q487.97-2.95 488.85-4.05L488.85-4.05Q489.68-5.13 489.68-6.81L489.68-6.81 489.68-14.77Q488.12-13.87 485.68-13.53L485.68-13.53Q482.99-13.11 482.99-8.2ZM479.33-2.71L479.33-2.71Q479.57-2.88 479.57-3.15L479.57-3.15Q479.57-3.52 479.23-4.17L479.23-4.17Q478.01-6.42 478.01-7.86 478.01-9.3 478.12-9.94 478.23-10.57 478.41-11.02 478.6-11.47 478.83-11.82 479.06-12.16 479.23-12.43L479.23-12.43Q479.55-12.99 479.55-13.2 479.55-13.4 479.33-13.55L479.33-13.55Q478.33-13.09 477.86-12.45L477.86-12.45Q477.03-11.33 476.64-9.55L476.64-9.55Q476.54-9.03 474.93-8.3L474.93-8.3Q476.5-7.59 476.64-7.06L476.64-7.06Q477.47-4.15 479.33-2.71ZM544.71 0.49L544.71 0.49Q542.22 0.49 540.83-2.2L540.83-2.2Q539.1-0.2 536.19 0.44L536.19 0.44Q535.34 0.61 534.51 0.61L534.51 0.61Q529.38 0.61 526.55-2.64L526.55-2.64Q523.96-5.64 523.64-11.13L523.64-11.13Q523.6-12.21 523.16-12.77L523.16-12.77Q522.42-13.7 520.67-14.55L520.67-14.55Q523.55-15.87 523.67-18.6 523.79-21.34 524.63-23.28 525.48-25.22 526.89-26.46L526.89-26.46Q529.6-28.81 534.46-28.81L534.46-28.81Q537.12-28.81 539.07-27.44L539.07-27.44Q539.73-26.98 540.2-26.37L540.2-26.37 540.2-31.62Q540.2-34.4 537.93-34.4L537.93-34.4Q537.1-34.4 536.56-33.98L536.56-33.98Q536.22-34.45 536.22-34.95 536.22-35.45 536.47-35.91 536.73-36.38 537.27-36.77L537.27-36.77Q538.42-37.6 540.17-37.6 541.93-37.6 542.91-37.38L542.91-37.38Q544.25-39.06 545.93-39.06L545.93-39.06Q548.45-39.06 548.45-36.43L548.45-36.43 548.45-17.8Q548.45-15.94 551.43-14.58L551.43-14.58Q548.45-13.23 548.45-11.38L548.45-11.38 548.45-4.05Q549.16-2.22 550.48-2.22L550.48-2.22Q551.31-2.22 551.84-2.64L551.84-2.64Q552.18-2.17 552.18-1.48 552.18-0.78 551.49-0.15 550.79 0.49 549.4 0.49 548.01 0.49 546.81-0.29L546.81-0.29Q545.76 0.49 544.71 0.49ZM542.54-30.52L542.54-6.47Q543.76-6.93 543.86-9.38L543.86-9.38Q543.88-9.94 543.9-10.75 543.91-11.57 543.93-12.57 543.96-13.57 543.96-14.6L543.96-14.6 544.01-16.55Q544.01-17.5 544.02-18.23 544.03-18.95 544.03-19.36L544.03-19.36 544.03-19.73Q544.03-19.8 544.02-20.42 544.01-21.04 543.99-21.96 543.98-22.88 543.96-23.93L543.96-23.93 543.91-25.98Q543.86-28.22 543.74-28.83L543.74-28.83Q543.54-30.05 542.54-30.52L542.54-30.52ZM535.8-25.24L535.8-25.24Q531.9-25.24 531.9-19.51L531.9-19.51 531.9-8.81Q531.9-4.35 534.85-3.27L534.85-3.27Q535.68-2.95 536.5-2.95 537.32-2.95 537.99-3.28 538.66-3.61 539.15-4.15L539.15-4.15Q540.2-5.35 540.2-7.01L540.2-7.01 540.2-19.51Q540.2-24 537.46-24.95L537.46-24.95Q536.66-25.24 535.8-25.24ZM527.92-6.47L527.92-6.47Q528.26-6.74 528.26-7.08L528.26-7.08Q528.26-7.62 528.04-8.45L528.04-8.45Q527.04-12.28 527.04-13.76 527.04-15.23 527.14-16.09 527.23-16.94 527.4-17.77L527.4-17.77Q527.72-19.53 528.04-20.75L528.04-20.75Q528.26-21.58 528.26-21.88L528.26-21.88Q528.26-22.46 527.92-22.73L527.92-22.73Q526.89-21.51 526.35-19.43 525.82-17.36 525.48-15.8L525.48-15.8Q525.35-15.16 524.04-14.55L524.04-14.55Q525.35-13.94 525.48-13.31L525.48-13.31Q526.38-9.18 526.97-8.08 527.55-6.98 527.92-6.47ZM593.79-7.37L593.79-7.37Q594.33-8.4 595.77-8.4L595.77-8.4Q596.75-8.4 597.28-7.59L597.28-7.59Q597.72-6.96 597.72-6.04 597.72-5.13 597.26-4.2 596.79-3.27 595.99-2.51 595.18-1.76 594.15-1.17 593.11-0.59 591.94-0.2L591.94-0.2Q589.52 0.61 586.91 0.61 584.29 0.61 582.01-0.26 579.73-1.12 578.09-2.69L578.09-2.69Q574.9-5.76 574.19-11.13L574.19-11.13Q574.02-12.33 573.63-12.84L573.63-12.84Q572.89-13.75 571.21-14.58L571.21-14.58Q573.33-15.53 573.92-17.63L573.92-17.63Q574.09-18.21 574.19-18.8L574.19-18.8Q574.8-23.1 578.53-26.12L578.53-26.12Q582.15-29.05 586.61-29.05L586.61-29.05Q591.25-29.05 594.65-25.78L594.65-25.78Q598.16-22.41 598.16-17.5L598.16-17.5Q598.16-17.33 598.15-17.16 598.14-16.99 598.16-16.85L598.16-16.85Q598.21-16.53 598.55-16.48L598.55-16.48Q598.99-15.92 598.99-15.28L598.99-15.28Q598.99-13.82 597.43-13.55L597.43-13.55Q597.04-13.48 596.21-13.35L596.21-13.35 582.44-11.16 582.44-8.81Q582.44-5.98 584.15-4.32L584.15-4.32Q585.76-2.73 588.23-2.73L588.23-2.73Q590.84-2.73 592.42-3.81L592.42-3.81Q593.91-4.83 593.91-6.49L593.91-6.49Q593.91-6.88 593.79-7.37ZM582.44-14.11L589.52-15.26 589.52-22.09Q589.52-23.71 588.88-24.46L588.88-24.46Q587.76-25.76 586.66-25.76 585.56-25.76 584.83-25.43 584.1-25.1 583.56-24.39L583.56-24.39Q582.44-22.9 582.44-19.75L582.44-19.75 582.44-14.11ZM591.62-15.63L593.13-15.87 593.13-16.63Q593.13-21.17 592.38-22.12L592.38-22.12Q592.03-22.53 591.62-22.73L591.62-22.73 591.62-15.63ZM578.46-6.47L578.46-6.47Q578.8-6.74 578.8-7.08L578.8-7.08Q578.8-7.62 578.58-8.45L578.58-8.45Q577.58-12.28 577.58-13.78 577.58-15.28 577.68-16.13 577.78-16.97 577.95-17.82L577.95-17.82Q578.24-19.48 578.58-20.75L578.58-20.75Q578.8-21.58 578.8-21.88L578.8-21.88Q578.8-22.46 578.46-22.73L578.46-22.73Q577.43-21.51 576.9-19.46 576.36-17.41 576.02-15.84L576.02-15.84Q575.9-15.19 574.58-14.58L574.58-14.58Q575.9-13.96 576.02-13.35L576.02-13.35Q576.92-9.23 577.51-8.11 578.09-6.98 578.46-6.47ZM657.6 0.49L657.6 0.49Q655.99 0.49 654.74-0.29L654.74-0.29Q653.5 0.49 652.43 0.49 651.37 0.49 650.69 0.31 650 0.12 649.49-0.2L649.49-0.2Q648.44-0.83 648.44-1.78L648.44-1.78Q648.44-2.27 648.71-2.64L648.71-2.64Q649.25-2.22 650.08-2.22L650.08-2.22Q652.25-2.22 653.08-4.08L653.08-4.08 653.08-16.02Q653.08-17.14 652.62-17.68L652.62-17.68Q651.88-18.58 650.1-19.46L650.1-19.46Q651.76-20.21 652.25-20.8L652.25-20.8Q653.08-21.75 653.08-22.95L653.08-22.95 653.08-33.25Q652.25-35.13 650.08-35.13L650.08-35.13Q649.25-35.13 648.71-34.72L648.71-34.72Q648.44-35.08 648.44-35.56 648.44-36.04 648.72-36.45 649-36.87 649.49-37.16L649.49-37.16Q650.61-37.84 652.07-37.84 653.52-37.84 654.74-37.04L654.74-37.04Q656.01-37.84 657.65-37.84 659.28-37.84 660.62-36.89L660.62-36.89Q663.21-37.84 666.61-37.84L666.61-37.84Q669.12-37.84 670.9-37.35L670.9-37.35 673.08-36.77Q673.47-36.67 673.83-36.67L673.83-36.67Q674.52-36.67 674.52-37.65L674.52-37.65Q674.52-37.89 674.35-38.48L674.35-38.48Q675.03-38.6 676.08-38.6 677.13-38.6 677.86-37.9 678.59-37.21 678.59-35.9 678.59-34.59 678.13-33.98L678.13-33.98Q678.79-33.01 678.79-31.6 678.79-30.2 677.84-29.25L677.84-29.25Q678.13-28.52 678.13-27.82 678.13-27.12 677.9-26.55 677.67-25.98 677.32-25.59L677.32-25.59Q676.64-24.88 675.93-24.88L675.93-24.88Q674.91-24.88 674.08-25.32L674.08-25.32Q674.37-25.9 674.37-27.05L674.37-27.05Q674.37-29.74 673.03-31.76L673.03-31.76Q671.2-34.55 667.53-34.55L667.53-34.55Q665.68-34.55 664.18-33.64 662.68-32.74 662.06-31.05L662.06-31.05 662.06-21.61Q662.92-21.07 663.66-21.07 664.41-21.07 664.79-21.09 665.17-21.12 665.56-21.19L665.56-21.19Q666.56-21.34 667.09-21.58L667.09-21.58Q668.12-22.07 668.12-23.97L668.12-23.97Q668.12-25.05 667.61-25.63L667.61-25.63Q668.1-25.98 668.83-25.98L668.83-25.98Q670.46-25.98 671.2-24.66L671.2-24.66Q671.46-24.19 671.46-23.63 671.46-23.07 671.17-22.24L671.17-22.24Q672.17-21.09 672.17-19.52 672.17-17.94 671.17-16.8L671.17-16.8Q671.46-15.97 671.46-15.3 671.46-14.62 671.2-14.01 670.93-13.4 670.54-13.04L670.54-13.04Q669.78-12.35 668.83-12.35L668.83-12.35Q668.14-12.35 667.61-12.74L667.61-12.74Q668.12-13.6 668.12-14.75L668.12-14.75Q668.12-17.02 666.87-17.55L666.87-17.55Q665.78-17.99 664.36-17.99 662.94-17.99 662.06-17.48L662.06-17.48 662.06-5.27Q663.48-2.78 667.53-2.78L667.53-2.78Q672.12-2.78 673.78-5.62L673.78-5.62Q675.71-8.86 675.71-12.57L675.71-12.57Q675.71-13.65 675.52-14.23L675.52-14.23Q676.13-14.84 676.79-14.84 677.45-14.84 677.79-14.66 678.13-14.48 678.4-14.21L678.4-14.21Q678.98-13.55 678.98-12.87L678.98-12.87 678.84-11.67Q678.84-11.21 679.08-10.91L679.08-10.91Q679.57-10.4 679.57-9.95 679.57-9.5 679.28-8.86L679.28-8.86Q679.84-8.54 680.29-7.92 680.74-7.3 680.74-6.64L680.74-6.64Q680.74-5.25 679.57-4.15L679.57-4.15Q680.08-3.42 680.08-2.04 680.08-0.66 679.29 0.31 678.5 1.27 677.23 1.27L677.23 1.27Q676.54 1.27 675.81 1.12L675.81 1.12Q675.91 0.59 675.91 0.05L675.91 0.05Q675.91-1.07 674.88-1.07L674.88-1.07Q673.73-1.07 672.59-0.61L672.59-0.61Q669.88 0.49 666.42 0.49 662.97 0.49 660.55-0.42L660.55-0.42Q659.28 0.49 657.6 0.49ZM655.42-9.64L655.42-6.47Q656.64-6.93 656.77-9.67L656.77-9.67Q656.91-12.4 656.91-17.24 656.91-22.07 656.9-23.67 656.89-25.27 656.86-26.25L656.86-26.25Q656.79-29.13 656.32-29.72 655.84-30.32 655.42-30.52L655.42-30.52Q655.42-22.02 655.13-20.85L655.13-20.85Q654.79-19.87 653.47-19.46L653.47-19.46Q654.94-18.95 655.13-18.21L655.13-18.21Q655.42-17.04 655.42-9.64L655.42-9.64ZM661.6-6.59L661.58-6.71Q661.58-6.64 661.6-6.59L661.6-6.59ZM718.22-2.32L718.22-2.32Q716 0.61 711.56 0.61L711.56 0.61Q706.14 0.61 703.43-2.64L703.43-2.64Q702.26-4.03 701.82-5.74L701.82-5.74Q701.57-6.76 700.96-7.31 700.35-7.86 699.45-8.3L699.45-8.3Q701.21-9.11 701.96-11.33L701.96-11.33Q702.77-13.67 704.65-14.72L704.65-14.72Q706.67-15.82 709.12-15.88 711.56-15.94 712.73-16.04 713.9-16.14 714.8-16.36L714.8-16.36Q716.49-16.75 717.44-17.8L717.44-17.8 717.44-21.46Q717.44-23.88 716.45-25 715.46-26.12 713.45-26.12 711.44-26.12 710.47-25.38 709.51-24.63 709.51-23.39L709.51-23.39Q709.51-21.48 711.46-21.53L711.46-21.53Q711.07-19.63 709.41-19.63L709.41-19.63Q708.92-19.63 708.46-19.8L708.46-19.8 708.46-19.73Q708.46-19.09 709.04-18.92L709.04-18.92Q708.43-17.99 706.99-18.02 705.55-18.04 704.75-19.56L704.75-19.56Q704.38-19.46 703.9-19.46 703.43-19.46 702.85-19.78 702.28-20.09 701.94-20.65L701.94-20.65Q703.16-21.39 703.43-22.92L703.43-22.92Q703.72-24.8 706.43-26.73L706.43-26.73Q709.7-29.05 714.78-29.05L714.78-29.05Q723.2-29.05 725.06-23.88L725.06-23.88Q725.67-22.14 725.67-19.78L725.67-19.78 725.67-17.8Q725.67-16.6 726.27-15.84 726.87-15.09 728.31-14.6L728.31-14.6Q726.77-13.89 726.33-13.33L726.33-13.33Q725.67-12.48 725.67-11.38L725.67-11.38 725.67-4.05Q726.38-2.22 727.7-2.22L727.7-2.22Q728.53-2.22 729.06-2.64L729.06-2.64Q729.4-2.17 729.4-1.48 729.4-0.78 728.71-0.15 728.01 0.49 726.62 0.49 725.23 0.49 724.03-0.29L724.03-0.29Q722.98 0.49 722.17 0.49 721.35 0.49 720.75 0.33 720.15 0.17 719.64-0.17L719.64-0.17Q718.49-0.93 718.22-2.32ZM719.76-22.73L719.76-6.47Q721.18-7.03 721.25-11.87L721.25-11.87Q721.25-12.89 721.25-14.21 721.25-15.53 721.24-16.47 721.23-17.41 721.2-18.26L721.2-18.26Q721.1-21.34 720.64-21.94 720.18-22.53 719.76-22.73L719.76-22.73ZM710.75-8.2L710.75-8.2Q710.75-7.18 710.97-6.2 711.19-5.22 711.63-4.49L711.63-4.49Q712.61-2.95 714.39-2.95L714.39-2.95Q715.73-2.95 716.61-4.05L716.61-4.05Q717.44-5.13 717.44-6.81L717.44-6.81 717.44-14.77Q715.88-13.87 713.44-13.53L713.44-13.53Q710.75-13.11 710.75-8.2ZM707.09-2.71L707.09-2.71Q707.33-2.88 707.33-3.15L707.33-3.15Q707.33-3.52 706.99-4.17L706.99-4.17Q705.77-6.42 705.77-7.86 705.77-9.3 705.88-9.94 705.99-10.57 706.17-11.02 706.36-11.47 706.59-11.82 706.82-12.16 706.99-12.43L706.99-12.43Q707.31-12.99 707.31-13.2 707.31-13.4 707.09-13.55L707.09-13.55Q706.09-13.09 705.63-12.45L705.63-12.45Q704.79-11.33 704.4-9.55L704.4-9.55Q704.31-9.03 702.7-8.3L702.7-8.3Q704.26-7.59 704.4-7.06L704.4-7.06Q705.23-4.15 707.09-2.71ZM754.58-0.59L754.58-0.59Q752.92 1 751.38 1L751.38 1Q750.53 1 750.21 0.37L750.21 0.37Q750.77-0.2 750.77-0.76 750.77-1.32 750.6-1.61L750.6-1.61 750.28-2.17 750.67-1.44Q750.09-1.71 749.77-2.34 749.45-2.98 749.45-3.89 749.45-4.81 750.48-5.98L750.48-5.98Q749.99-6.67 749.99-7.5 749.99-8.33 750.27-8.87 750.55-9.42 750.99-9.86L750.99-9.86Q751.97-10.79 753.07-10.79L753.07-10.79Q753.8-10.79 754.12-10.28L754.12-10.28Q753.46-9.57 753.46-8.04 753.46-6.52 753.98-5.44 754.51-4.37 755.41-3.61L755.41-3.61Q757.32-2 760.1-2L760.1-2Q763.2-2 764.4-4.27L764.4-4.27Q764.74-4.96 764.74-5.65 764.74-6.35 764.42-6.9 764.1-7.45 763.59-7.96L763.59-7.96Q762.74-8.79 760.98-9.86L760.98-9.86Q759.29-11.06 757-11.06L757-11.06Q755.51-11.06 755-10.82L755-10.82Q755.31-11.55 755.31-12.28 755.31-13.01 754.34-13.88 753.36-14.75 752.59-15.63 751.82-16.5 751.36-17.38L751.36-17.38Q750.43-19.04 750.43-20.9 750.43-22.75 751.2-24.18 751.97-25.61 753.36-26.64L753.36-26.64Q756.27-28.81 760.81-28.81L760.81-28.81Q763-28.81 763.82-28.61 764.64-28.42 765.13-28.25L765.13-28.25Q765.79-28 766.74-28 767.69-28 768.07-28.42 768.45-28.83 768.45-29.19 768.45-29.54 768.37-29.74L768.37-29.74Q768.52-29.79 768.81-29.79 769.11-29.79 769.49-29.61 769.86-29.44 770.16-29.15L770.16-29.15Q770.74-28.49 770.74-27.75 770.74-27 770.45-26.61L770.45-26.61Q771.13-25.98 771.13-24.8 771.13-23.63 770.16-22.83L770.16-22.83Q770.38-22.39 770.38-21.75 770.38-21.12 769.69-20.53 769.01-19.95 768.4-19.95L768.4-19.95Q767.35-19.95 766.98-20.21L766.98-20.21Q767.3-21 767.3-21.91 767.3-22.83 766.81-23.66 766.32-24.49 765.57-25L765.57-25Q764.15-25.98 762.2-25.98L762.2-25.98Q759.73-25.98 758.88-24.41L758.88-24.41Q758.61-23.93 758.61-23.35 758.61-22.78 758.77-22.3 758.93-21.83 759.29-21.34L759.29-21.34Q760-20.39 761.29-19.53L761.29-19.53Q762.98-18.43 763.64-18.43L763.64-18.43Q765.05-18.43 766.1-19.12L766.1-19.12Q765.81-17.94 765.81-17.48L765.81-17.48Q765.81-16.77 766.93-15.84L766.93-15.84Q770.08-13.67 771.23-11.87L771.23-11.87Q772.33-10.11 772.33-7.96 772.33-5.81 771.38-4.28 770.43-2.76 768.79-1.66L768.79-1.66Q765.4 0.61 760.56 0.61L760.56 0.61Q757.27 0.61 754.58-0.59ZM753.73-22.95L753.73-22.95Q753.02-22.61 753.02-21.06 753.02-19.51 754.02-18.1 755.02-16.7 757.19-14.94L757.19-14.94Q757.71-14.55 757.71-14.18L757.71-14.18Q757.71-13.62 757.61-13.28L757.61-13.28Q757.9-13.35 758.63-13.43L758.63-13.43Q760.42-13.6 763.05-11.77L763.05-11.77Q767.25-9.18 767.25-6.32L767.25-6.32Q767.25-5.25 766.96-4.71L766.96-4.71Q767.84-4.88 768.3-6.2L768.3-6.2Q768.42-6.59 768.42-7.01L768.42-7.01Q768.42-8.98 766.29-11.02 764.15-13.06 760.15-14.97L760.15-14.97Q753.51-18.33 753.73-22.95ZM821.36-25.17L821.36-25.17Q820.82-25.51 819.65-25.51L819.65-25.51Q817.31-25.51 816.11-22.34L816.11-22.34 815.35-20.21Q814.52-17.9 814.51-17.04 814.5-16.19 814.8-15.66 815.11-15.14 816.18-14.58L816.18-14.58Q813.55-13.84 812.59-12.11L812.59-12.11Q812.3-11.57 812.08-10.99L812.08-10.99 808.03 0.02Q805.66 6.84 803.63 9.25L803.63 9.25Q801.78 11.47 799 11.47L799 11.47Q796.87 11.47 794.99 10.11L794.99 10.11Q792.84 8.57 792.84 6.49L792.84 6.49Q792.84 5.2 793.53 4.53 794.21 3.86 794.78 3.86 795.36 3.86 795.58 3.87 795.8 3.88 796.02 3.96L796.02 3.96Q796.46 4.15 796.85 4.83L796.85 4.83Q796.33 5.81 797.51 6.98L797.51 6.98Q798.6 8.13 799.57 8.13 800.53 8.13 801.18 7.76 801.83 7.4 802.34 6.64L802.34 6.64Q803.46 4.98 803.46 1.88L803.46 1.88Q803.46 0.2 802.56-1.83L802.56-1.83Q802.32-2.51 801.97-3.27L801.97-3.27 798.51-11.08Q797.95-12.33 796.81-13.29 795.68-14.26 794.26-14.58L794.26-14.58Q795.94-15.43 795.94-16.82L795.94-16.82Q795.94-17.82 795.14-19.78L795.14-19.78 793.7-23.24Q793.06-24.66 792.65-25.02L792.65-25.02Q791.92-25.61 790.95-25.61 789.99-25.61 789.45-25.2L789.45-25.2Q789.16-25.49 789.14-26.05 789.13-26.61 789.28-26.99 789.43-27.37 789.77-27.66L789.77-27.66Q790.5-28.32 791.88-28.32 793.26-28.32 794.48-27.44L794.48-27.44Q795.48-28.32 796.92-28.32 798.36-28.32 799.46-27.51L799.46-27.51Q800.56-28.32 801.93-28.32 803.29-28.32 804.09-27.67 804.88-27.03 804.9-26.39L804.9-26.39Q804.93-25.44 804.59-25.1L804.59-25.1Q804-25.54 803.37-25.54 802.73-25.54 802.33-25.17 801.93-24.8 801.97-23.97L801.97-23.97 807.61-8.74 812.96-24.39Q812.69-25.63 811.18-25.63L811.18-25.63Q810.23-25.63 809.37-25.17L809.37-25.17Q809.13-25.63 809.14-26.37 809.15-27.1 809.82-27.71 810.49-28.32 811.65-28.32 812.81-28.32 813.64-27.54L813.64-27.54Q814.52-28.32 815.62-28.32 816.72-28.32 817.62-27.64L817.62-27.64Q818.45-28.32 819.47-28.32 820.48-28.32 821.08-27.73 821.68-27.15 821.65-26.51L821.65-26.51Q821.6-25.54 821.36-25.17ZM802.34-12.08L797.85-22.73Q797.29-22.36 797.3-21.8 797.31-21.24 797.35-20.94 797.38-20.63 797.48-20.21L797.48-20.21Q797.7-19.43 798.37-17.91 799.04-16.38 799.08-16 799.12-15.63 798.82-15.17 798.53-14.72 798.12-14.58L798.12-14.58Q799.68-14.28 800.05-13.48L800.05-13.48Q800.22-13.13 800.53-12.4L800.53-12.4 802.19-8.69Q802.68-7.57 803.22-6.47L803.22-6.47Q804.22-7.69 802.34-12.08L802.34-12.08Z" opacity="1" transform="matrix(1,0,0,1,0,0)" fill="#f9cc0b" class="slogan-text-1" data-fill-palette-color="secondary" id="text-1"></path></svg></g></svg></g></svg></g></svg></g><g></g></svg></g></svg></g></svg></g></svg></g><defs></defs></svg><rect width="395.52" height="247.2" fill="none" stroke="none" visibility="hidden"></rect></g></svg></g></svg>